<svg xmlns="http://www.w3.org/2000/svg" width="16.667" height="20" viewBox="0 0 16.667 20">
  <g id="Group_166" data-name="Group 166" transform="translate(-1418 -1406)">
    <g id="icon_android" transform="translate(1418 1406)">
      <path id="ic_android_24px" d="M5.333,15a.836.836,0,0,0,.833.833H7V18.75a1.25,1.25,0,1,0,2.5,0V15.833h1.667V18.75a1.25,1.25,0,1,0,2.5,0V15.833H14.5A.836.836,0,0,0,15.333,15V6.667h-10ZM3.25,6.667A1.248,1.248,0,0,0,2,7.917V13.75a1.25,1.25,0,0,0,2.5,0V7.917A1.248,1.248,0,0,0,3.25,6.667Zm14.167,0a1.248,1.248,0,0,0-1.25,1.25V13.75a1.25,1.25,0,0,0,2.5,0V7.917A1.248,1.248,0,0,0,17.417,6.667ZM13.275,1.8,14.358.717a.413.413,0,0,0,0-.592.413.413,0,0,0-.592,0L12.533,1.358a4.866,4.866,0,0,0-2.2-.525,4.936,4.936,0,0,0-2.217.525L6.875.125a.413.413,0,0,0-.592,0,.413.413,0,0,0,0,.592L7.375,1.808A4.986,4.986,0,0,0,5.333,5.833h10A4.971,4.971,0,0,0,13.275,1.8ZM8.667,4.167H7.833V3.333h.833Zm4.167,0H12V3.333h.833Z" transform="translate(-2 0)" fill="#363636"/>
    </g>
  </g>
</svg>
