<svg xmlns="http://www.w3.org/2000/svg" width="16.271" height="20" viewBox="0 0 16.271 20">
  <g id="Group_168" data-name="Group 168" transform="translate(-228 -1312)">
    <g id="icon_apple" transform="translate(228 1312)">
      <g id="Group_20" data-name="Group 20">
        <path id="Path_154" data-name="Path 154" d="M42.791,61.621a4.407,4.407,0,0,1,2.165-3.706,4.7,4.7,0,0,0-3.665-1.926c-1.543-.157-3.038.9-3.823.9-.8,0-2.011-.882-3.315-.855a4.9,4.9,0,0,0-4.108,2.434c-1.776,2.989-.451,7.381,1.25,9.8.851,1.183,1.847,2.5,3.148,2.457,1.274-.052,1.75-.79,3.287-.79s1.97.79,3.3.76c1.368-.022,2.229-1.189,3.05-2.383a9.654,9.654,0,0,0,1.394-2.76A4.289,4.289,0,0,1,42.791,61.621Z" transform="translate(-29.201 -50.72)" fill="#363636"/>
        <path id="Path_155" data-name="Path 155" d="M41.267,54.211a4.873,4.873,0,0,0,1.114-3.491,4.962,4.962,0,0,0-3.208,1.66,4.637,4.637,0,0,0-1.143,3.361A4.1,4.1,0,0,0,41.267,54.211Z" transform="translate(-30.156 -50.72)" fill="#363636"/>
      </g>
    </g>
  </g>
</svg>
