<svg xmlns="http://www.w3.org/2000/svg" width="134.554" height="30" viewBox="0 0 134.554 30">
  <g id="Component_5" data-name="Component 5" transform="translate(0)">
    <path id="Path_12" data-name="Path 12" d="M365.194-47.674a1.226,1.226,0,0,0-1.035-.45H362.3a1.567,1.567,0,0,0-1.689,1.422l-.7,3.956a.6.6,0,0,1-.763.549q-2.425-.174-3.222-.174H355.3q-4.471,0-6.586,1.856t-2.969,7.092l-.131.787q-.8,5.032.878,6.989t6.2,1.96h.968a16.591,16.591,0,0,0,4.782-.555,5.019,5.019,0,0,0,2.607-1.65,7.013,7.013,0,0,0,1.174-3.035L365.4-46.532A1.359,1.359,0,0,0,365.194-47.674ZM358.81-36.507l-1.123,6.375a3,3,0,0,1-.465,1.334,1.773,1.773,0,0,1-1.048.607,9.692,9.692,0,0,1-2.373.241h-.413q-2.2,0-2.805-.951T350.5-32.62l.14-.8a7.646,7.646,0,0,1,1.374-3.734,4.166,4.166,0,0,1,3.125-.955h.447a10.571,10.571,0,0,1,2.506.271Q359.019-37.6,358.81-36.507Z" transform="translate(-345.358 48.139)" fill="#5d247f"/>
    <path id="Path_13" data-name="Path 13" d="M366.412-45.045h-.348q-4.5,0-6.569,1.837t-3,6.969l-.138.865q-.866,4.922.779,6.969t6.292,2.044h.519a25.455,25.455,0,0,0,5.788-.624,2.968,2.968,0,0,0,1.215-.572,1.929,1.929,0,0,0,.553-1.161l.209-1.041a1.359,1.359,0,0,0-.209-1.144,1.189,1.189,0,0,0-1.005-.45,19.8,19.8,0,0,0-2.3.45,17.06,17.06,0,0,1-3.762.45h-.553a3.615,3.615,0,0,1-2.687-.727,2.982,2.982,0,0,1-.329-2.5.651.651,0,0,1,.693-.624h8.735a3.669,3.669,0,0,0,2.218-.589,3.006,3.006,0,0,0,1.041-2.011l.172-1.005q.7-3.916-1.022-5.528T366.412-45.045Zm2.635,7.072a.64.64,0,0,1-.7.591h-6.2q-.589,0-.484-.591a4.439,4.439,0,0,1,1.2-2.635,4.21,4.21,0,0,1,2.755-.727h.52q2.15,0,2.7.677T369.047-37.973Z" transform="translate(-336.058 50.814)" fill="#5d247f"/>
    <path id="Path_14" data-name="Path 14" d="M374.426-47.711a1.239,1.239,0,0,0-1.005-.413h-1.9a1.554,1.554,0,0,0-1.663,1.422l-3.747,21.248a1.357,1.357,0,0,0,.209,1.144,1.226,1.226,0,0,0,1.039.45h1.873a1.543,1.543,0,0,0,1.665-1.387l3.777-21.417A1.246,1.246,0,0,0,374.426-47.711Z" transform="translate(-327.365 48.139)" fill="#5d247f"/>
    <path id="Path_15" data-name="Path 15" d="M376.648-44.952h-1.916A1.572,1.572,0,0,0,373.06-43.5l-2.669,15.287a1.37,1.37,0,0,0,.2,1.144,1.205,1.205,0,0,0,1.026.45h1.846a1.532,1.532,0,0,0,1.641-1.4l2.758-15.648a.93.93,0,0,0-.209-.919A1.319,1.319,0,0,0,376.648-44.952Z" transform="translate(-323.642 50.895)" fill="#5d247f"/>
    <path id="Path_16" data-name="Path 16" d="M377.4-46.981a.764.764,0,0,0-.209-.82,1.462,1.462,0,0,0-1.043-.331H374.27a1.574,1.574,0,0,0-1.7,1.418l-.312,1.774a1.264,1.264,0,0,0,.228,1.118,1.263,1.263,0,0,0,1.026.439h1.878q1.427,0,1.706-1.856Z" transform="translate(-322.021 48.132)" fill="#5d247f"/>
    <path id="Path_17" data-name="Path 17" d="M386.175-45.045h-.828q-4.522,0-6.593,1.717t-2.938,6.451l-.144.783q-.832,4.5.9,6.459t6.074,1.957h.551a19.78,19.78,0,0,0,2.622-.207c.344-.024.563.022.656.138a.838.838,0,0,1,.034.658,2.328,2.328,0,0,1-1.155,1.734,6.451,6.451,0,0,1-2.882.486h-.275a14.624,14.624,0,0,1-3.693-.5q-1.931-.5-2.1-.5a1.54,1.54,0,0,0-1.66,1.385l-.174,1.11a1.5,1.5,0,0,0,1.248,1.906,23.176,23.176,0,0,0,6,.66h.587q4.278,0,6.365-1.529t2.777-5.627L393.6-39.824a3.79,3.79,0,0,0-1.207-3.925Q390.729-45.043,386.175-45.045Zm2.515,6.485-.914,4.99a1.572,1.572,0,0,1-1.228,1.387,9.7,9.7,0,0,1-2.562.277h-.456q-2.318,0-2.945-.819t-.213-3.254l.108-.622a5.966,5.966,0,0,1,1.334-3.332,4.753,4.753,0,0,1,3.227-.847h.42a8.969,8.969,0,0,1,2.351.277,1.258,1.258,0,0,1,.876.626A2.458,2.458,0,0,1,388.69-38.56Z" transform="translate(-320.022 50.814)" fill="#5d247f"/>
    <path id="Path_18" data-name="Path 18" d="M399.5-41.681,399.714-43q.241-1.354-1.318-1.734a15.5,15.5,0,0,0-3.64-.312h-.207a15.311,15.311,0,0,0-3.353.348,5.268,5.268,0,0,0-2.65,1.144,6.123,6.123,0,0,0-1.112,2.983L385.2-27.921a1.17,1.17,0,0,0,.222.989,1.119,1.119,0,0,0,.914.4H388.3a1.646,1.646,0,0,0,1.084-.383,1.594,1.594,0,0,0,.57-1.009l1.957-11.3a2.136,2.136,0,0,1,.329-.947,1.365,1.365,0,0,1,.781-.432,7.727,7.727,0,0,1,1.489-.172h.069a9.306,9.306,0,0,1,1.994.224,8.278,8.278,0,0,0,1.3.226A1.485,1.485,0,0,0,399.5-41.681Z" transform="translate(-310.76 50.814)" fill="#5d247f"/>
    <path id="Path_19" data-name="Path 19" d="M402.9-45.045a23.771,23.771,0,0,0-5.928.729,2.2,2.2,0,0,0-1.768,1.8l-.207.972a1.345,1.345,0,0,0,.226,1.177,1.283,1.283,0,0,0,1.022.417,18.822,18.822,0,0,0,2.323-.486,15.658,15.658,0,0,1,3.639-.486,3.683,3.683,0,0,1,2.549.624,2.659,2.659,0,0,1,.293,2.323q-.1.7-.763.591a21.252,21.252,0,0,0-3.5-.278h-.832a9.882,9.882,0,0,0-5.113,1.075,5.04,5.04,0,0,0-2.2,3.674l-.1.693q-.519,3.053,1.144,4.455t5.582,1.4h.934q4.3,0,6.171-1.232a5.991,5.991,0,0,0,2.392-4.246l.832-4.575q.866-5.026-.607-6.829T402.9-45.045Zm1.284,11.889-.209,1.353a2.026,2.026,0,0,1-.45,1.075,2.171,2.171,0,0,1-1.039.484,12.675,12.675,0,0,1-2.323.174h-.312a3.486,3.486,0,0,1-2.185-.484,1.76,1.76,0,0,1-.346-1.7l.034-.241a2.146,2.146,0,0,1,.884-1.594,4.642,4.642,0,0,1,2.375-.45h.348a11.862,11.862,0,0,1,2.495.207,1,1,0,0,1,.71.364A1.1,1.1,0,0,1,404.188-33.156Z" transform="translate(-304.473 50.814)" fill="#5d247f"/>
    <path id="Path_20" data-name="Path 20" d="M430.219-41a3.808,3.808,0,0,0-.848-1.661,5.517,5.517,0,0,0-1.508-1.159,8.013,8.013,0,0,0-2.321-.744,29.432,29.432,0,0,0-3.134-.381q-1.716-.121-4.07-.12a71.836,71.836,0,0,0-10.221.589,4.2,4.2,0,0,0-2.459,1.024,4.54,4.54,0,0,0-1.041,2.48l-2.267,12.857a1.358,1.358,0,0,0,.209,1.144,1.226,1.226,0,0,0,1.039.45h1.873a1.543,1.543,0,0,0,1.665-1.387l1.925-10.921a2.3,2.3,0,0,1,.452-1.246,2.155,2.155,0,0,1,1.147-.45,26.914,26.914,0,0,1,3.964-.277c.488,0,.7.221.626.66L413.13-28.113a1.351,1.351,0,0,0,.207,1.144,1.23,1.23,0,0,0,1.041.45h1.837a1.51,1.51,0,0,0,1.7-1.387l2.158-12.233a.678.678,0,0,1,.725-.662,9.133,9.133,0,0,1,3.452.45,2.184,2.184,0,0,1,1.175,1.8,10.937,10.937,0,0,1-.348,3.811l-1.168,6.623a1.377,1.377,0,0,0,.2,1.144,1.2,1.2,0,0,0,1.02.45h1.833a1.6,1.6,0,0,0,1.663-1.4l1.383-8.043a14.422,14.422,0,0,0,.415-2.837A8.131,8.131,0,0,0,430.219-41Z" transform="translate(-295.877 50.798)" fill="#5d247f"/>
  </g>
</svg>
