<svg id="Group_199" data-name="Group 199" xmlns="http://www.w3.org/2000/svg" width="70" height="70" viewBox="0 0 70 70">
  <circle id="Ellipse_67" data-name="Ellipse 67" cx="35" cy="35" r="35" fill="#fcac00"/>
  <g id="Group_197" data-name="Group 197" transform="translate(12.466 34.971)">
    <path id="Path_173" data-name="Path 173" d="M12.886,46.217a.281.281,0,0,1-.073-.2.363.363,0,0,1,.044-.161l5.409-9.36a.724.724,0,0,1,.656-.408h2.245a.433.433,0,0,1,.482.408l1.428,9.36a.38.38,0,0,1-.072.321.334.334,0,0,1-.263.116H20.977a.388.388,0,0,1-.437-.349L20.292,44.5H16.4l-.875,1.488a.647.647,0,0,1-.539.306h-1.9A.262.262,0,0,1,12.886,46.217Zm7.26-3.812-.539-3.849-2.173,3.849Z" transform="translate(-12.813 -35.947)" fill="#5d247f"/>
    <path id="Path_174" data-name="Path 174" d="M25.121,49.129a2.691,2.691,0,0,1-1.093-1.013,1.89,1.89,0,0,1-.263-.845.531.531,0,0,1,.015-.131.381.381,0,0,1,.139-.256.414.414,0,0,1,.284-.109h1.88a.3.3,0,0,1,.212.065.437.437,0,0,1,.094.227,1.014,1.014,0,0,0,.277.532,1.051,1.051,0,0,0,.729.2,1.572,1.572,0,0,0,1.647-1.429l.2-.976a3.439,3.439,0,0,1-.977.612,3.209,3.209,0,0,1-1.2.2,2.682,2.682,0,0,1-1.946-.634,2.489,2.489,0,0,1-.649-1.858,4.9,4.9,0,0,1,.073-.889,6.13,6.13,0,0,1,.161-.773,5.435,5.435,0,0,1,1.349-2.514,3.235,3.235,0,0,1,2.369-.9,2.831,2.831,0,0,1,1.312.292,1.926,1.926,0,0,1,.831.758l.117-.539a.481.481,0,0,1,.452-.365h1.676a.307.307,0,0,1,.247.1.272.272,0,0,1,.058.175.275.275,0,0,1-.015.088l-1.472,7.012a4.2,4.2,0,0,1-1.428,2.558,4.7,4.7,0,0,1-2.989.853A4.273,4.273,0,0,1,25.121,49.129ZM29.16,43.9a2.181,2.181,0,0,0,.612-1.006q.146-.67.175-.889a3.107,3.107,0,0,0,.029-.364,1.124,1.124,0,0,0-.248-.766,1.011,1.011,0,0,0-.8-.284,1.425,1.425,0,0,0-1.064.415,2.491,2.491,0,0,0-.6,1.115q-.117.525-.131.657a3.085,3.085,0,0,0-.044.51,1.14,1.14,0,0,0,.226.751.95.95,0,0,0,.766.27A1.522,1.522,0,0,0,29.16,43.9Z" transform="translate(-13.109 -36.016)" fill="#5d247f"/>
    <path id="Path_175" data-name="Path 175" d="M35,45.82a2.531,2.531,0,0,1-.809-2.034,6.254,6.254,0,0,1,.1-.976c.067-.321.107-.491.116-.511a4.768,4.768,0,0,1,1.64-2.689,4.549,4.549,0,0,1,2.923-.97,3.194,3.194,0,0,1,2.325.766,2.76,2.76,0,0,1,.779,2.063,5.455,5.455,0,0,1-.116,1.064l-.073.349a.487.487,0,0,1-.175.263.445.445,0,0,1-.277.1H36.775l-.029.1a2.454,2.454,0,0,0-.044.452,1.2,1.2,0,0,0,.24.786.861.861,0,0,0,.707.292,1.223,1.223,0,0,0,.627-.153,3.286,3.286,0,0,0,.511-.372.928.928,0,0,1,.24-.19.66.66,0,0,1,.27-.044H41.1a.267.267,0,0,1,.218.088.208.208,0,0,1,.044.131.409.409,0,0,1-.014.1,2.024,2.024,0,0,1-.634.868,4.65,4.65,0,0,1-1.421.845,5.276,5.276,0,0,1-1.983.357A3.457,3.457,0,0,1,35,45.82ZM39.544,41.8l.015-.029a3.547,3.547,0,0,0,.059-.5,1.123,1.123,0,0,0-.248-.773.931.931,0,0,0-.729-.277,1.339,1.339,0,0,0-.991.415,2.187,2.187,0,0,0-.554,1.131l-.016.029Z" transform="translate(-13.391 -36.016)" fill="#5d247f"/>
    <path id="Path_176" data-name="Path 176" d="M42.628,46.264A.3.3,0,0,1,42.57,46l1.457-6.851a.418.418,0,0,1,.161-.263.464.464,0,0,1,.292-.1h1.676a.306.306,0,0,1,.247.1.266.266,0,0,1,.058.175.276.276,0,0,1-.015.088l-.116.554a3.769,3.769,0,0,1,1.122-.773,3.341,3.341,0,0,1,1.4-.292,2.553,2.553,0,0,1,1.793.591,2.214,2.214,0,0,1,.641,1.713,5.194,5.194,0,0,1-.117.991L50.3,46a.424.424,0,0,1-.153.262.417.417,0,0,1-.27.1H48.037a.3.3,0,0,1-.248-.109A.3.3,0,0,1,47.73,46l.845-3.979a3.107,3.107,0,0,0,.073-.569.829.829,0,0,0-.234-.648,1.085,1.085,0,0,0-.743-.212,1.693,1.693,0,0,0-1.108.372,1.805,1.805,0,0,0-.6,1.058L45.135,46a.413.413,0,0,1-.161.262.442.442,0,0,1-.276.1H42.876A.308.308,0,0,1,42.628,46.264Z" transform="translate(-13.618 -36.016)" fill="#5d247f"/>
    <path id="Path_177" data-name="Path 177" d="M53.353,44.282a3.642,3.642,0,0,1,.1-.86l.6-2.8H52.916a.277.277,0,0,1-.24-.109.308.308,0,0,1-.052-.256l.248-1.18a.418.418,0,0,1,.161-.263.44.44,0,0,1,.276-.1h1.152l.51-2.405a.418.418,0,0,1,.161-.263.445.445,0,0,1,.277-.1H57.1a.309.309,0,0,1,.248.1.322.322,0,0,1,.058.175.275.275,0,0,1-.015.088l-.511,2.405H58.7a.309.309,0,0,1,.248.1.272.272,0,0,1,.058.175.276.276,0,0,1-.015.088l-.248,1.18a.418.418,0,0,1-.161.263.445.445,0,0,1-.277.1H56.473l-.555,2.595a2.223,2.223,0,0,0-.058.511.569.569,0,0,0,.146.43.717.717,0,0,0,.5.138h1.151a.267.267,0,0,1,.234.1.283.283,0,0,1,.044.262l-.263,1.269a.413.413,0,0,1-.161.262.444.444,0,0,1-.276.1H56.02Q53.353,46.293,53.353,44.282Z" transform="translate(-13.89 -35.943)" fill="#5d247f"/>
  </g>
  <g id="Group_198" data-name="Group 198" transform="translate(6.697 21.524)">
    <path id="Path_178" data-name="Path 178" d="M15.235,22.319a.513.513,0,0,0-.435-.19h-.784a.66.66,0,0,0-.711.6l-.294,1.665a.255.255,0,0,1-.321.233q-1.022-.073-1.357-.073H11.07a4.133,4.133,0,0,0-2.774.78,5.046,5.046,0,0,0-1.25,2.987l-.054.332a3.708,3.708,0,0,0,.37,2.943,3.331,3.331,0,0,0,2.611.825h.407a6.949,6.949,0,0,0,2.014-.234,2.122,2.122,0,0,0,1.1-.694,2.972,2.972,0,0,0,.494-1.278L15.322,22.8A.569.569,0,0,0,15.235,22.319Zm-2.687,4.7L12.074,29.7a1.241,1.241,0,0,1-.2.562.74.74,0,0,1-.441.255,4.016,4.016,0,0,1-1,.1h-.173q-.927,0-1.181-.4a2.421,2.421,0,0,1-.036-1.566l.059-.335a3.213,3.213,0,0,1,.579-1.573,1.755,1.755,0,0,1,1.315-.4h.188a4.385,4.385,0,0,1,1.056.115C12.5,26.529,12.606,26.715,12.547,27.02Z" transform="translate(-6.883 -22.122)" fill="#5d247f"/>
    <path id="Path_179" data-name="Path 179" d="M19.9,24.62h-.146a4.09,4.09,0,0,0-2.766.773,5.157,5.157,0,0,0-1.263,2.933l-.058.365a3.713,3.713,0,0,0,.328,2.934,3.278,3.278,0,0,0,2.649.861h.219a10.705,10.705,0,0,0,2.438-.263,1.25,1.25,0,0,0,.511-.241.811.811,0,0,0,.234-.488l.088-.438a.574.574,0,0,0-.088-.483.5.5,0,0,0-.423-.19,8.627,8.627,0,0,0-.971.19,7.191,7.191,0,0,1-1.584.19h-.234a1.518,1.518,0,0,1-1.131-.306,1.251,1.251,0,0,1-.139-1.051.274.274,0,0,1,.292-.263h3.679a1.544,1.544,0,0,0,.934-.248,1.266,1.266,0,0,0,.438-.846l.073-.423a2.479,2.479,0,0,0-.431-2.328A3.906,3.906,0,0,0,19.9,24.62ZM21.008,27.6a.268.268,0,0,1-.292.248H18.1q-.248,0-.2-.248a1.875,1.875,0,0,1,.5-1.109,1.772,1.772,0,0,1,1.161-.306h.218q.9,0,1.139.284A1.507,1.507,0,0,1,21.008,27.6Z" transform="translate(-7.117 -22.19)" fill="#5d247f"/>
    <path id="Path_180" data-name="Path 180" d="M27.152,22.3a.519.519,0,0,0-.422-.174h-.8a.654.654,0,0,0-.7.6L23.65,31.676a.572.572,0,0,0,.088.482.518.518,0,0,0,.438.19h.789a.65.65,0,0,0,.7-.584l1.591-9.019A.522.522,0,0,0,27.152,22.3Z" transform="translate(-7.336 -22.122)" fill="#5d247f"/>
    <path id="Path_181" data-name="Path 181" d="M29.749,24.695h-.807a.661.661,0,0,0-.7.612l-1.125,6.438a.575.575,0,0,0,.087.482.506.506,0,0,0,.432.19h.777a.645.645,0,0,0,.691-.59l1.162-6.589a.394.394,0,0,0-.089-.387A.554.554,0,0,0,29.749,24.695Z" transform="translate(-7.43 -22.192)" fill="#5d247f"/>
    <path id="Path_182" data-name="Path 182" d="M30.79,22.608a.323.323,0,0,0-.089-.346.615.615,0,0,0-.439-.139h-.791a.663.663,0,0,0-.717.6l-.131.747a.511.511,0,0,0,.527.655h.792q.6,0,.718-.78Z" transform="translate(-7.471 -22.122)" fill="#5d247f"/>
    <path id="Path_183" data-name="Path 183" d="M35.378,24.62h-.349a4.326,4.326,0,0,0-2.776.722,4.521,4.521,0,0,0-1.238,2.716l-.06.33a3.18,3.18,0,0,0,.377,2.72,3.293,3.293,0,0,0,2.558.824h.232a8.3,8.3,0,0,0,1.1-.088c.145-.01.237.01.276.058a.351.351,0,0,1,.015.277.981.981,0,0,1-.486.73,2.716,2.716,0,0,1-1.213.2H33.7a6.173,6.173,0,0,1-1.554-.212q-.813-.212-.886-.211a.648.648,0,0,0-.7.584l-.073.467a.631.631,0,0,0,.524.8,9.776,9.776,0,0,0,2.528.277h.247a4.538,4.538,0,0,0,2.68-.644,3.536,3.536,0,0,0,1.169-2.369l.865-4.991a1.592,1.592,0,0,0-.509-1.652A4.474,4.474,0,0,0,35.378,24.62Zm1.059,2.73-.385,2.1a.66.66,0,0,1-.517.584,4.045,4.045,0,0,1-1.079.117h-.192c-.651,0-1.064-.114-1.241-.344a1.9,1.9,0,0,1-.09-1.37l.046-.262a2.523,2.523,0,0,1,.561-1.4,2,2,0,0,1,1.359-.356h.177a3.785,3.785,0,0,1,.99.117.528.528,0,0,1,.369.263A1.041,1.041,0,0,1,36.436,27.35Z" transform="translate(-7.521 -22.19)" fill="#5d247f"/>
    <path id="Path_184" data-name="Path 184" d="M45.123,26.036l.088-.555q.1-.569-.555-.73a6.458,6.458,0,0,0-1.532-.131h-.088a6.464,6.464,0,0,0-1.412.146,2.216,2.216,0,0,0-1.116.482,2.576,2.576,0,0,0-.468,1.256L39.1,31.831a.49.49,0,0,0,.093.415.473.473,0,0,0,.385.168h.826a.7.7,0,0,0,.457-.162.673.673,0,0,0,.239-.425l.824-4.76a.9.9,0,0,1,.138-.4.58.58,0,0,1,.329-.182,3.341,3.341,0,0,1,.628-.072h.029a3.9,3.9,0,0,1,.84.094,3.441,3.441,0,0,0,.547.1A.626.626,0,0,0,45.123,26.036Z" transform="translate(-7.754 -22.19)" fill="#5d247f"/>
    <path id="Path_185" data-name="Path 185" d="M49.36,24.62a9.976,9.976,0,0,0-2.5.306.925.925,0,0,0-.744.759l-.088.409a.567.567,0,0,0,.094.5.543.543,0,0,0,.431.175,8.015,8.015,0,0,0,.978-.2,6.59,6.59,0,0,1,1.532-.2,1.548,1.548,0,0,1,1.073.263,1.116,1.116,0,0,1,.125.978.253.253,0,0,1-.322.248,8.961,8.961,0,0,0-1.474-.117h-.35a4.162,4.162,0,0,0-2.153.452,2.123,2.123,0,0,0-.926,1.547L45,30.02a1.877,1.877,0,0,0,.482,1.876,3.66,3.66,0,0,0,2.35.592h.394a4.91,4.91,0,0,0,2.6-.519,2.523,2.523,0,0,0,1.007-1.787l.35-1.927q.365-2.116-.256-2.875A3.258,3.258,0,0,0,49.36,24.62Zm.541,5.006-.089.569a.84.84,0,0,1-.19.452.909.909,0,0,1-.438.205,5.345,5.345,0,0,1-.978.073h-.131a1.465,1.465,0,0,1-.919-.2.741.741,0,0,1-.146-.716l.015-.1a.9.9,0,0,1,.373-.671,1.953,1.953,0,0,1,1-.19h.146a5.036,5.036,0,0,1,1.051.088.425.425,0,0,1,.3.154A.47.47,0,0,1,49.9,29.626Z" transform="translate(-7.913 -22.19)" fill="#5d247f"/>
    <path id="Path_186" data-name="Path 186" d="M64.7,26.316a1.607,1.607,0,0,0-.358-.7,2.313,2.313,0,0,0-.634-.487,3.349,3.349,0,0,0-.978-.313,12.085,12.085,0,0,0-1.32-.161Q60.688,24.6,59.7,24.6a30.215,30.215,0,0,0-4.3.249,1.765,1.765,0,0,0-1.035.431,1.911,1.911,0,0,0-.438,1.044l-.954,5.414a.572.572,0,0,0,.088.482.518.518,0,0,0,.438.19h.788a.65.65,0,0,0,.7-.584l.81-4.6a.962.962,0,0,1,.191-.525.91.91,0,0,1,.484-.189,11.22,11.22,0,0,1,1.669-.117q.308,0,.264.277L57.5,31.743a.572.572,0,0,0,.088.482.52.52,0,0,0,.439.19H58.8a.637.637,0,0,0,.716-.584l.908-5.152a.286.286,0,0,1,.306-.278,3.832,3.832,0,0,1,1.454.19.919.919,0,0,1,.5.759,4.633,4.633,0,0,1-.146,1.605l-.492,2.788a.575.575,0,0,0,.086.482.5.5,0,0,0,.429.19h.772a.674.674,0,0,0,.7-.592l.583-3.387a6.093,6.093,0,0,0,.175-1.194A3.536,3.536,0,0,0,64.7,26.316Z" transform="translate(-8.129 -22.189)" fill="#5d247f"/>
  </g>
</svg>
