<svg id="Group_205" data-name="Group 205" xmlns="http://www.w3.org/2000/svg" width="70" height="70" viewBox="0 0 70 70">
  <circle id="Ellipse_69" data-name="Ellipse 69" cx="35" cy="35" r="35" fill="#46a652"/>
  <g id="Group_203" data-name="Group 203" transform="translate(6.948 35.042)">
    <path id="Path_202" data-name="Path 202" d="M7.249,46.143a.289.289,0,0,1-.046-.238l1.865-8.787a.387.387,0,0,1,.149-.243.411.411,0,0,1,.257-.094h3.3a4.963,4.963,0,0,1,1.9.345,3.027,3.027,0,0,1,1.339,1.02,2.662,2.662,0,0,1,.492,1.609,4.489,4.489,0,0,1-.067.717q-.19,1.094-.433,2.068a5.033,5.033,0,0,1-1.568,2.818,4.928,4.928,0,0,1-3.163.885h-3.8A.263.263,0,0,1,7.249,46.143ZM11.392,44.3a2.144,2.144,0,0,0,1.407-.425,2.484,2.484,0,0,0,.743-1.359q.284-1.2.433-2.015a4.438,4.438,0,0,0,.053-.513,1.152,1.152,0,0,0-.378-.954,1.79,1.79,0,0,0-1.136-.3H11.163L9.974,44.3Z" transform="translate(-7.195 -36.309)" fill="#fff"/>
    <path id="Path_203" data-name="Path 203" d="M18.285,45.82a2.344,2.344,0,0,1-.75-1.886,5.726,5.726,0,0,1,.095-.906c.063-.3.1-.456.108-.473a4.411,4.411,0,0,1,1.521-2.494,4.213,4.213,0,0,1,2.709-.9,2.963,2.963,0,0,1,2.156.709,2.558,2.558,0,0,1,.723,1.913,5.1,5.1,0,0,1-.107.987l-.068.324a.454.454,0,0,1-.162.243.409.409,0,0,1-.257.095H19.928l-.028.1a2.357,2.357,0,0,0-.041.419,1.114,1.114,0,0,0,.224.73.8.8,0,0,0,.656.269,1.135,1.135,0,0,0,.581-.142,2.9,2.9,0,0,0,.473-.345.863.863,0,0,1,.223-.175.6.6,0,0,1,.25-.041h1.675a.247.247,0,0,1,.2.081.191.191,0,0,1,.041.122.4.4,0,0,1-.013.094,1.88,1.88,0,0,1-.588.8,4.294,4.294,0,0,1-1.318.784,4.892,4.892,0,0,1-1.838.332A3.2,3.2,0,0,1,18.285,45.82ZM22.5,42.1l.014-.028a3.269,3.269,0,0,0,.054-.46,1.033,1.033,0,0,0-.231-.715.855.855,0,0,0-.675-.257,1.238,1.238,0,0,0-.919.384,2.032,2.032,0,0,0-.514,1.048l-.014.028Z" transform="translate(-7.551 -36.391)" fill="#fff"/>
    <path id="Path_204" data-name="Path 204" d="M25.415,46.144a.277.277,0,0,1-.054-.243l1.905-8.921a.411.411,0,0,1,.407-.338h1.6a.285.285,0,0,1,.23.095.291.291,0,0,1,.054.162.269.269,0,0,1-.014.081L27.645,45.9a.387.387,0,0,1-.149.243.41.41,0,0,1-.257.1h-1.6A.284.284,0,0,1,25.415,46.144Z" transform="translate(-7.821 -36.304)" fill="#fff"/>
    <path id="Path_205" data-name="Path 205" d="M29.432,46.132a.28.28,0,0,1-.054-.243l1.352-6.353a.392.392,0,0,1,.149-.243.43.43,0,0,1,.27-.094h1.6a.27.27,0,0,1,.216.094.255.255,0,0,1,.054.162.231.231,0,0,1-.014.081l-1.338,6.353a.383.383,0,0,1-.149.243.41.41,0,0,1-.257.1h-1.6A.284.284,0,0,1,29.432,46.132Zm1.7-8.043a.333.333,0,0,1-.061-.243l.27-1.216a.387.387,0,0,1,.149-.243.409.409,0,0,1,.257-.095h1.622a.284.284,0,0,1,.23.095.288.288,0,0,1,.054.162.269.269,0,0,1-.014.081l-.257,1.216a.394.394,0,0,1-.142.243.4.4,0,0,1-.264.095H31.351A.265.265,0,0,1,31.128,38.089Z" transform="translate(-7.959 -36.292)" fill="#fff"/>
    <path id="Path_206" data-name="Path 206" d="M35.574,46.243a.565.565,0,0,1-.122-.251L34.236,39.68a.31.31,0,0,1,.068-.269.357.357,0,0,1,.284-.108H36.02a.328.328,0,0,1,.351.311l.649,4.123,2.42-4.15a.494.494,0,0,1,.446-.284h1.636a.274.274,0,0,1,.189.061.214.214,0,0,1,.068.169.364.364,0,0,1-.068.188l-3.88,6.272a1.018,1.018,0,0,1-.223.251.49.49,0,0,1-.3.088h-1.46A.356.356,0,0,1,35.574,46.243Z" transform="translate(-8.126 -36.396)" fill="#fff"/>
    <path id="Path_207" data-name="Path 207" d="M42.658,45.82a2.347,2.347,0,0,1-.75-1.886A5.844,5.844,0,0,1,42,43.028c.063-.3.1-.456.108-.473a4.421,4.421,0,0,1,1.521-2.494,4.214,4.214,0,0,1,2.71-.9,2.965,2.965,0,0,1,2.156.709,2.561,2.561,0,0,1,.723,1.913,5.032,5.032,0,0,1-.108.987l-.068.324a.448.448,0,0,1-.162.243.409.409,0,0,1-.257.095H44.3l-.027.1a2.27,2.27,0,0,0-.041.419,1.113,1.113,0,0,0,.223.73.8.8,0,0,0,.656.269,1.135,1.135,0,0,0,.581-.142,2.9,2.9,0,0,0,.473-.345.863.863,0,0,1,.223-.175.6.6,0,0,1,.25-.041h1.676a.248.248,0,0,1,.2.081.2.2,0,0,1,.041.122.358.358,0,0,1-.014.094,1.864,1.864,0,0,1-.588.8,4.283,4.283,0,0,1-1.318.784,4.885,4.885,0,0,1-1.838.332A3.2,3.2,0,0,1,42.658,45.82ZM46.869,42.1l.014-.028a3.269,3.269,0,0,0,.054-.46,1.033,1.033,0,0,0-.23-.715.858.858,0,0,0-.676-.257,1.24,1.24,0,0,0-.919.384,2.04,2.04,0,0,0-.514,1.048l-.014.028Z" transform="translate(-8.391 -36.391)" fill="#fff"/>
    <path id="Path_208" data-name="Path 208" d="M49.788,46.236a.277.277,0,0,1-.054-.243l1.352-6.353a.387.387,0,0,1,.149-.243.43.43,0,0,1,.27-.094h1.555a.287.287,0,0,1,.23.094.3.3,0,0,1,.054.162.255.255,0,0,1-.014.081l-.108.541a2.445,2.445,0,0,1,2.028-.878h.756a.272.272,0,0,1,.217.094.264.264,0,0,1,.041.243l-.284,1.393a.392.392,0,0,1-.149.243.432.432,0,0,1-.27.094h-1.3a1.412,1.412,0,0,0-.926.3,1.479,1.479,0,0,0-.493.858l-.73,3.461a.387.387,0,0,1-.149.243.428.428,0,0,1-.27.1H50.018A.284.284,0,0,1,49.788,46.236Z" transform="translate(-8.66 -36.396)" fill="#fff"/>
    <path id="Path_209" data-name="Path 209" d="M56.648,48.839a.216.216,0,0,1-.068-.17.386.386,0,0,1,.068-.2l1.649-2.6-1.311-6.177a.33.33,0,0,1,.068-.278.363.363,0,0,1,.3-.114h1.433a.311.311,0,0,1,.338.284l.757,3.933,2.474-3.933a.486.486,0,0,1,.46-.284H64.42a.262.262,0,0,1,.182.068.211.211,0,0,1,.074.162.277.277,0,0,1-.054.176l-5.745,8.908a.5.5,0,0,1-.473.284H56.823A.253.253,0,0,1,56.648,48.839Z" transform="translate(-8.896 -36.396)" fill="#fff"/>
  </g>
  <g id="Group_204" data-name="Group 204" transform="translate(6.646 21.36)">
    <path id="Path_210" data-name="Path 210" d="M15.171,22.317a.509.509,0,0,0-.432-.188h-.778a.655.655,0,0,0-.706.595l-.292,1.652a.253.253,0,0,1-.319.231q-1.014-.072-1.347-.072h-.261a4.1,4.1,0,0,0-2.753.774,5.007,5.007,0,0,0-1.241,2.964L6.99,28.6a3.68,3.68,0,0,0,.367,2.921,3.306,3.306,0,0,0,2.592.819h.4a6.9,6.9,0,0,0,2-.233,2.105,2.105,0,0,0,1.09-.688,2.949,2.949,0,0,0,.491-1.269l1.327-7.358A.565.565,0,0,0,15.171,22.317ZM12.5,26.983l-.47,2.664a1.231,1.231,0,0,1-.194.558.735.735,0,0,1-.437.253,3.986,3.986,0,0,1-.993.1h-.172q-.92,0-1.172-.4a2.4,2.4,0,0,1-.036-1.555l.059-.332a3.188,3.188,0,0,1,.575-1.561,1.741,1.741,0,0,1,1.305-.4h.186a4.352,4.352,0,0,1,1.048.114C12.462,26.5,12.562,26.681,12.5,26.983Z" transform="translate(-6.883 -22.122)" fill="#fff"/>
    <path id="Path_211" data-name="Path 211" d="M19.866,24.62h-.145a4.059,4.059,0,0,0-2.745.768A5.118,5.118,0,0,0,15.722,28.3l-.058.362a3.685,3.685,0,0,0,.325,2.912,3.254,3.254,0,0,0,2.629.855h.217a10.624,10.624,0,0,0,2.42-.261,1.241,1.241,0,0,0,.507-.239.8.8,0,0,0,.232-.485l.087-.435a.569.569,0,0,0-.087-.479.5.5,0,0,0-.42-.188,8.562,8.562,0,0,0-.964.188,7.136,7.136,0,0,1-1.572.188h-.232a1.506,1.506,0,0,1-1.122-.3,1.241,1.241,0,0,1-.138-1.043.272.272,0,0,1,.29-.261h3.651a1.533,1.533,0,0,0,.927-.246,1.256,1.256,0,0,0,.435-.84l.072-.42a2.46,2.46,0,0,0-.428-2.311A3.876,3.876,0,0,0,19.866,24.62Zm1.1,2.955a.266.266,0,0,1-.29.246H18.083q-.246,0-.2-.246a1.861,1.861,0,0,1,.5-1.1,1.758,1.758,0,0,1,1.152-.3h.216q.9,0,1.131.282A1.5,1.5,0,0,1,20.966,27.575Z" transform="translate(-7.181 -22.208)" fill="#fff"/>
    <path id="Path_212" data-name="Path 212" d="M27.125,22.3a.515.515,0,0,0-.419-.173h-.8a.649.649,0,0,0-.7.594L23.649,31.6a.567.567,0,0,0,.087.478.514.514,0,0,0,.435.188h.783a.645.645,0,0,0,.7-.579l1.579-8.951A.518.518,0,0,0,27.125,22.3Z" transform="translate(-7.46 -22.122)" fill="#fff"/>
    <path id="Path_213" data-name="Path 213" d="M29.729,24.695h-.8a.656.656,0,0,0-.7.607l-1.116,6.389a.571.571,0,0,0,.086.478.5.5,0,0,0,.429.188H28.4a.64.64,0,0,0,.686-.585l1.153-6.539a.391.391,0,0,0-.088-.384A.55.55,0,0,0,29.729,24.695Z" transform="translate(-7.579 -22.211)" fill="#fff"/>
    <path id="Path_214" data-name="Path 214" d="M30.774,22.6a.32.32,0,0,0-.088-.344.611.611,0,0,0-.435-.138h-.785a.658.658,0,0,0-.712.593l-.13.742a.507.507,0,0,0,.523.65h.786q.6,0,.713-.774Z" transform="translate(-7.631 -22.122)" fill="#fff"/>
    <path id="Path_215" data-name="Path 215" d="M35.34,24.62h-.347a4.293,4.293,0,0,0-2.755.716,4.487,4.487,0,0,0-1.228,2.7l-.06.327a3.155,3.155,0,0,0,.374,2.7,3.268,3.268,0,0,0,2.538.818h.23a8.233,8.233,0,0,0,1.1-.087c.144-.01.236.01.274.058a.348.348,0,0,1,.014.275.973.973,0,0,1-.483.724,2.7,2.7,0,0,1-1.2.2h-.116a6.126,6.126,0,0,1-1.542-.21q-.807-.21-.88-.21a.643.643,0,0,0-.693.579l-.072.463a.627.627,0,0,0,.52.8,9.7,9.7,0,0,0,2.509.275h.245a4.5,4.5,0,0,0,2.66-.639,3.51,3.51,0,0,0,1.161-2.351l.858-4.953a1.58,1.58,0,0,0-.5-1.64A4.44,4.44,0,0,0,35.34,24.62Zm1.051,2.709-.382,2.085a.655.655,0,0,1-.513.579,4.014,4.014,0,0,1-1.071.116h-.19c-.646,0-1.056-.113-1.231-.342a1.889,1.889,0,0,1-.089-1.36l.045-.26a2.5,2.5,0,0,1,.557-1.393,1.989,1.989,0,0,1,1.349-.353h.176a3.756,3.756,0,0,1,.983.116.524.524,0,0,1,.366.261A1.033,1.033,0,0,1,36.391,27.329Z" transform="translate(-7.695 -22.208)" fill="#fff"/>
    <path id="Path_216" data-name="Path 216" d="M45.078,26.025l.087-.55q.1-.565-.55-.724a6.409,6.409,0,0,0-1.521-.13h-.087a6.415,6.415,0,0,0-1.4.145,2.2,2.2,0,0,0-1.108.478,2.557,2.557,0,0,0-.464,1.247L39.1,31.776a.487.487,0,0,0,.093.412.469.469,0,0,0,.382.167h.82a.69.69,0,0,0,.454-.16.668.668,0,0,0,.238-.422l.818-4.724a.891.891,0,0,1,.137-.4.576.576,0,0,1,.326-.181,3.316,3.316,0,0,1,.623-.071h.029a3.868,3.868,0,0,1,.833.094,3.415,3.415,0,0,0,.543.095A.621.621,0,0,0,45.078,26.025Z" transform="translate(-7.992 -22.208)" fill="#fff"/>
    <path id="Path_217" data-name="Path 217" d="M49.327,24.62a9.9,9.9,0,0,0-2.477.3.918.918,0,0,0-.739.753l-.087.406a.562.562,0,0,0,.094.492.539.539,0,0,0,.428.174,7.954,7.954,0,0,0,.97-.2,6.54,6.54,0,0,1,1.521-.2A1.536,1.536,0,0,1,50.1,26.6a1.108,1.108,0,0,1,.124.97.251.251,0,0,1-.32.246,8.893,8.893,0,0,0-1.463-.116H48.1a4.13,4.13,0,0,0-2.137.449,2.107,2.107,0,0,0-.919,1.535l-.043.29a1.862,1.862,0,0,0,.478,1.862,3.632,3.632,0,0,0,2.332.587H48.2a4.873,4.873,0,0,0,2.579-.515,2.5,2.5,0,0,0,1-1.774l.348-1.913q.362-2.1-.254-2.853A3.234,3.234,0,0,0,49.327,24.62Zm.537,4.968-.088.565a.834.834,0,0,1-.188.449.9.9,0,0,1-.435.2,5.3,5.3,0,0,1-.97.072h-.13a1.454,1.454,0,0,1-.912-.2.735.735,0,0,1-.145-.711l.014-.1a.9.9,0,0,1,.37-.666,1.938,1.938,0,0,1,.992-.188h.145a5,5,0,0,1,1.043.087.422.422,0,0,1,.3.153A.467.467,0,0,1,49.864,29.588Z" transform="translate(-8.193 -22.208)" fill="#fff"/>
    <path id="Path_218" data-name="Path 218" d="M64.61,26.3a1.6,1.6,0,0,0-.355-.694,2.3,2.3,0,0,0-.63-.484,3.324,3.324,0,0,0-.97-.311,11.993,11.993,0,0,0-1.31-.159q-.715-.051-1.7-.051a29.986,29.986,0,0,0-4.272.247,1.751,1.751,0,0,0-1.027.428,1.9,1.9,0,0,0-.435,1.036l-.947,5.373a.567.567,0,0,0,.087.478.514.514,0,0,0,.435.188h.782a.645.645,0,0,0,.7-.579l.8-4.564a.955.955,0,0,1,.189-.521.9.9,0,0,1,.48-.187,11.135,11.135,0,0,1,1.656-.116q.306,0,.262.275l-.886,5.027a.567.567,0,0,0,.087.478.516.516,0,0,0,.435.188h.768a.632.632,0,0,0,.711-.579l.9-5.113a.283.283,0,0,1,.3-.276,3.8,3.8,0,0,1,1.443.188.912.912,0,0,1,.491.753,4.6,4.6,0,0,1-.145,1.593l-.489,2.767a.57.57,0,0,0,.085.478.5.5,0,0,0,.426.188h.766a.669.669,0,0,0,.7-.587l.578-3.361a6.047,6.047,0,0,0,.174-1.185A3.51,3.51,0,0,0,64.61,26.3Z" transform="translate(-8.469 -22.207)" fill="#fff"/>
  </g>
</svg>
