<svg xmlns="http://www.w3.org/2000/svg" width="70" height="70" viewBox="0 0 70 70">
  <g id="Group_196" data-name="Group 196" transform="translate(0 -0.417)">
    <circle id="Ellipse_66" data-name="Ellipse 66" cx="35" cy="35" r="35" transform="translate(0 0.417)" fill="#5d247f"/>
    <g id="Group_195" data-name="Group 195" transform="translate(14.839 19.34)">
      <path id="Path_171" data-name="Path 171" d="M22.938,45.641q-4.788,0-6.562-2.074t-.931-7.4l.138-.832q.905-5.544,3.144-7.508t6.97-1.963h.661q.844,0,3.411.184a.639.639,0,0,0,.807-.583l.738-4.186A1.659,1.659,0,0,1,33.1,19.775h1.97a1.3,1.3,0,0,1,1.1.475,1.444,1.444,0,0,1,.218,1.209l-3.36,18.635a7.46,7.46,0,0,1-1.242,3.215,5.332,5.332,0,0,1-2.759,1.745,17.546,17.546,0,0,1-5.063.588Zm1.171-4.514a10.147,10.147,0,0,0,2.512-.257,1.876,1.876,0,0,0,1.11-.642,3.164,3.164,0,0,0,.492-1.412l1.188-6.747q.222-1.152-.763-1.4A11.087,11.087,0,0,0,26,30.378h-.472a4.4,4.4,0,0,0-3.307,1.012,8.054,8.054,0,0,0-1.454,3.952l-.149.843q-.55,2.93.089,3.936t2.969,1.006Z" transform="translate(-15.173 -19.775)" fill="#fcac00"/>
      <path id="Path_172" data-name="Path 172" d="M43.8,51.648a24.6,24.6,0,0,1-6.353-.7,1.589,1.589,0,0,1-1.32-2.019l.184-1.175a1.63,1.63,0,0,1,1.757-1.467q.183,0,2.227.531a15.5,15.5,0,0,0,3.907.533h.292a6.832,6.832,0,0,0,3.048-.513,2.461,2.461,0,0,0,1.223-1.835.892.892,0,0,0-.036-.7q-.147-.182-.694-.147a20.87,20.87,0,0,1-2.776.22h-.584q-4.6,0-6.428-2.07T37.3,35.477l.152-.829q.92-5.013,3.112-6.828T47.537,26h.877q4.821,0,6.575,1.373a4.006,4.006,0,0,1,1.279,4.154L54.093,44.075q-.729,4.338-2.94,5.956t-6.736,1.618ZM50.15,30.809a9.5,9.5,0,0,0-2.488-.294h-.447a5.036,5.036,0,0,0-3.415.9,6.327,6.327,0,0,0-1.411,3.529l-.116.658q-.44,2.58.225,3.445t3.118.866H46.1a10.234,10.234,0,0,0,2.712-.293,1.663,1.663,0,0,0,1.3-1.467l.967-5.281a2.6,2.6,0,0,0,0-1.4A1.328,1.328,0,0,0,50.15,30.809Z" transform="translate(-15.633 -19.912)" fill="#fcac00"/>
    </g>
  </g>
</svg>
