<svg id="Group_202" data-name="Group 202" xmlns="http://www.w3.org/2000/svg" width="70" height="70" viewBox="0 0 70 70">
  <circle id="Ellipse_68" data-name="Ellipse 68" cx="35" cy="35" r="35" fill="#e6234d"/>
  <g id="Group_200" data-name="Group 200" transform="translate(11.823 35.432)">
    <path id="Path_187" data-name="Path 187" d="M13.277,46.142a.443.443,0,0,1-.129-.29l-.921-8.7a.33.33,0,0,1,.081-.264.314.314,0,0,1,.244-.1h1.625a.41.41,0,0,1,.3.1.391.391,0,0,1,.115.25l.582,6.254,3.249-6.254a.591.591,0,0,1,.542-.352h1.814a.214.214,0,0,1,.169.068.251.251,0,0,1,.061.176.364.364,0,0,1-.041.162l-4.6,8.664a.706.706,0,0,1-.636.406H13.622A.465.465,0,0,1,13.277,46.142Z" transform="translate(-12.226 -36.647)" fill="#fff"/>
    <path id="Path_188" data-name="Path 188" d="M21.015,45.829a2.35,2.35,0,0,1-.751-1.889,5.853,5.853,0,0,1,.095-.907c.063-.3.1-.456.108-.474a4.428,4.428,0,0,1,1.523-2.5,4.22,4.22,0,0,1,2.714-.9,2.969,2.969,0,0,1,2.159.71,2.565,2.565,0,0,1,.724,1.916,5.04,5.04,0,0,1-.108.988l-.068.325a.449.449,0,0,1-.162.244.409.409,0,0,1-.257.095H22.66l-.027.1a2.274,2.274,0,0,0-.041.42,1.115,1.115,0,0,0,.223.731.8.8,0,0,0,.657.27,1.136,1.136,0,0,0,.582-.142,2.9,2.9,0,0,0,.474-.345.865.865,0,0,1,.223-.175.6.6,0,0,1,.25-.041h1.679a.25.25,0,0,1,.2.081.2.2,0,0,1,.041.122.405.405,0,0,1-.014.094,1.867,1.867,0,0,1-.589.806A4.3,4.3,0,0,1,25,46.14a4.892,4.892,0,0,1-1.841.333A3.209,3.209,0,0,1,21.015,45.829Zm4.217-3.73.014-.028a3.274,3.274,0,0,0,.054-.46,1.034,1.034,0,0,0-.23-.717.86.86,0,0,0-.677-.257,1.241,1.241,0,0,0-.921.385,2.043,2.043,0,0,0-.514,1.049l-.014.028Z" transform="translate(-12.492 -36.725)" fill="#fff"/>
    <path id="Path_189" data-name="Path 189" d="M28.144,46.241A.281.281,0,0,1,28.09,46l1.354-6.363a.392.392,0,0,1,.149-.244.431.431,0,0,1,.271-.094H31.42a.287.287,0,0,1,.23.094.25.25,0,0,1,.054.162.256.256,0,0,1-.014.081l-.108.515a3.506,3.506,0,0,1,1.042-.718,3.115,3.115,0,0,1,1.3-.27,2.367,2.367,0,0,1,1.665.548,2.051,2.051,0,0,1,.6,1.591,4.8,4.8,0,0,1-.108.921L35.265,46a.4.4,0,0,1-.142.244.384.384,0,0,1-.25.1H33.166a.28.28,0,0,1-.23-.1A.276.276,0,0,1,32.882,46l.785-3.695a2.867,2.867,0,0,0,.068-.528.769.769,0,0,0-.217-.6,1,1,0,0,0-.69-.2,1.566,1.566,0,0,0-1.029.345,1.668,1.668,0,0,0-.555.981L30.472,46a.387.387,0,0,1-.149.244.409.409,0,0,1-.257.1H28.374A.285.285,0,0,1,28.144,46.241Z" transform="translate(-12.75 -36.725)" fill="#fff"/>
    <path id="Path_190" data-name="Path 190" d="M37.974,45.759a2.4,2.4,0,0,1-.63-1.78,5.2,5.2,0,0,1,.068-.771q.094-.487.217-.961a4.777,4.777,0,0,1,1.259-2.322,3.038,3.038,0,0,1,2.193-.846,2.8,2.8,0,0,1,1.151.217,1.853,1.853,0,0,1,.758.581l.623-2.9a.4.4,0,0,1,.142-.244.382.382,0,0,1,.25-.095h1.652a.285.285,0,0,1,.23.095.235.235,0,0,1,.068.175.243.243,0,0,1-.014.069l-1.909,8.934a.413.413,0,0,1-.406.339H42.109a.285.285,0,0,1-.23-.1.278.278,0,0,1-.054-.244l.095-.432a3.744,3.744,0,0,1-.961.676,2.806,2.806,0,0,1-1.2.231A2.407,2.407,0,0,1,37.974,45.759Zm3.743-1.577a2.113,2.113,0,0,0,.569-.988q.135-.527.217-1.014a2.792,2.792,0,0,0,.027-.312,1.029,1.029,0,0,0-.237-.7.95.95,0,0,0-.751-.27q-1.1,0-1.543,1.421a4.875,4.875,0,0,0-.176.839,2.811,2.811,0,0,0-.041.461,1.077,1.077,0,0,0,.21.71.863.863,0,0,0,.7.251A1.42,1.42,0,0,0,41.717,44.182Z" transform="translate(-13.056 -36.642)" fill="#fff"/>
    <path id="Path_191" data-name="Path 191" d="M46.99,45.815A2.21,2.21,0,0,1,46.178,44a4.005,4.005,0,0,1,.041-.569,6.485,6.485,0,0,1,.257-1.218,4.083,4.083,0,0,1,1.415-2.255,4.271,4.271,0,0,1,2.687-.791,3.539,3.539,0,0,1,2.268.663,2.221,2.221,0,0,1,.833,1.84,3.84,3.84,0,0,1-.041.542q-.176.92-.257,1.218a4.194,4.194,0,0,1-1.4,2.261,4.294,4.294,0,0,1-2.728.785A3.5,3.5,0,0,1,46.99,45.815Zm4.021-2.457a9.73,9.73,0,0,0,.23-1.083,4.471,4.471,0,0,0,.054-.528.98.98,0,0,0-.223-.7.915.915,0,0,0-.7-.237q-1.15,0-1.53,1.461a7.727,7.727,0,0,0-.23,1.083,2.789,2.789,0,0,0-.054.542.99.99,0,0,0,.21.689.88.88,0,0,0,.684.231Q50.632,44.821,51.011,43.358Z" transform="translate(-13.347 -36.725)" fill="#fff"/>
    <path id="Path_192" data-name="Path 192" d="M54.492,46.246A.278.278,0,0,1,54.438,46l1.354-6.363a.388.388,0,0,1,.149-.244.431.431,0,0,1,.271-.094h1.557A.288.288,0,0,1,58,39.4a.3.3,0,0,1,.054.162.256.256,0,0,1-.014.081l-.108.542a2.448,2.448,0,0,1,2.031-.879h.758a.272.272,0,0,1,.217.094.264.264,0,0,1,.041.244l-.284,1.4a.392.392,0,0,1-.149.244.433.433,0,0,1-.271.094h-1.3a1.415,1.415,0,0,0-.927.3,1.481,1.481,0,0,0-.494.86L56.82,46a.387.387,0,0,1-.149.244.429.429,0,0,1-.271.1H54.722A.285.285,0,0,1,54.492,46.246Z" transform="translate(-13.62 -36.73)" fill="#fff"/>
  </g>
  <g id="Group_201" data-name="Group 201" transform="translate(6.656 21.392)">
    <path id="Path_193" data-name="Path 193" d="M15.184,22.318a.51.51,0,0,0-.432-.189h-.779a.656.656,0,0,0-.707.6l-.292,1.655a.254.254,0,0,1-.319.231q-1.015-.073-1.349-.073h-.261a4.107,4.107,0,0,0-2.757.776,5.015,5.015,0,0,0-1.243,2.969l-.054.33a3.685,3.685,0,0,0,.367,2.925,3.311,3.311,0,0,0,2.6.82h.4a6.907,6.907,0,0,0,2-.233,2.109,2.109,0,0,0,1.092-.689,2.953,2.953,0,0,0,.491-1.271L15.271,22.8A.566.566,0,0,0,15.184,22.318ZM12.513,26.99l-.471,2.668a1.233,1.233,0,0,1-.194.559.736.736,0,0,1-.438.253,3.992,3.992,0,0,1-.994.1h-.172q-.921,0-1.174-.4a2.406,2.406,0,0,1-.036-1.557l.059-.333a3.193,3.193,0,0,1,.575-1.564,1.744,1.744,0,0,1,1.307-.4h.187a4.358,4.358,0,0,1,1.049.114C12.47,26.5,12.571,26.687,12.513,26.99Z" transform="translate(-6.883 -22.122)" fill="#fff"/>
    <path id="Path_194" data-name="Path 194" d="M19.872,24.62h-.145a4.065,4.065,0,0,0-2.749.769A5.126,5.126,0,0,0,15.723,28.3l-.058.363a3.691,3.691,0,0,0,.326,2.916,3.258,3.258,0,0,0,2.633.856h.218a10.64,10.64,0,0,0,2.423-.261,1.242,1.242,0,0,0,.508-.24A.806.806,0,0,0,22,31.453l.087-.435a.57.57,0,0,0-.087-.48.5.5,0,0,0-.421-.189,8.574,8.574,0,0,0-.965.189,7.147,7.147,0,0,1-1.574.189h-.232a1.508,1.508,0,0,1-1.124-.3,1.243,1.243,0,0,1-.138-1.044.272.272,0,0,1,.29-.261H21.5a1.535,1.535,0,0,0,.928-.247,1.258,1.258,0,0,0,.435-.841l.073-.421a2.464,2.464,0,0,0-.428-2.314A3.882,3.882,0,0,0,19.872,24.62Zm1.1,2.959a.267.267,0,0,1-.29.247h-2.6q-.247,0-.2-.247a1.864,1.864,0,0,1,.5-1.1,1.761,1.761,0,0,1,1.154-.3h.217q.9,0,1.132.282A1.5,1.5,0,0,1,20.974,27.579Z" transform="translate(-7.169 -22.204)" fill="#fff"/>
    <path id="Path_195" data-name="Path 195" d="M27.131,22.3a.515.515,0,0,0-.42-.173h-.8a.65.65,0,0,0-.7.595l-1.567,8.893a.568.568,0,0,0,.087.479.515.515,0,0,0,.435.189h.784a.646.646,0,0,0,.7-.58l1.581-8.964A.519.519,0,0,0,27.131,22.3Z" transform="translate(-7.436 -22.122)" fill="#fff"/>
    <path id="Path_196" data-name="Path 196" d="M29.733,24.695h-.8a.657.657,0,0,0-.7.608l-1.118,6.4a.571.571,0,0,0,.086.479.5.5,0,0,0,.429.189H28.4a.641.641,0,0,0,.687-.586l1.155-6.548a.392.392,0,0,0-.088-.385A.551.551,0,0,0,29.733,24.695Z" transform="translate(-7.55 -22.207)" fill="#fff"/>
    <path id="Path_197" data-name="Path 197" d="M30.777,22.6a.321.321,0,0,0-.088-.344.612.612,0,0,0-.436-.138h-.786a.659.659,0,0,0-.713.594l-.131.743a.508.508,0,0,0,.524.651h.787q.6,0,.714-.776Z" transform="translate(-7.6 -22.122)" fill="#fff"/>
    <path id="Path_198" data-name="Path 198" d="M35.347,24.62H35a4.3,4.3,0,0,0-2.759.718,4.493,4.493,0,0,0-1.23,2.7l-.06.328a3.16,3.16,0,0,0,.374,2.7,3.273,3.273,0,0,0,2.542.819h.23a8.245,8.245,0,0,0,1.1-.087c.144-.01.236.01.275.058a.349.349,0,0,1,.015.276A.975.975,0,0,1,35,32.86a2.7,2.7,0,0,1-1.206.2h-.116a6.135,6.135,0,0,1-1.544-.211q-.808-.21-.881-.21a.644.644,0,0,0-.694.58l-.073.464a.628.628,0,0,0,.521.8,9.716,9.716,0,0,0,2.512.276h.246a4.51,4.51,0,0,0,2.664-.64,3.515,3.515,0,0,0,1.162-2.355l.86-4.961a1.582,1.582,0,0,0-.506-1.642A4.446,4.446,0,0,0,35.347,24.62ZM36.4,27.333l-.383,2.088A.656.656,0,0,1,35.5,30a4.02,4.02,0,0,1-1.072.116h-.19c-.647,0-1.058-.113-1.233-.342a1.892,1.892,0,0,1-.089-1.362l.045-.26a2.507,2.507,0,0,1,.558-1.4,1.992,1.992,0,0,1,1.351-.354h.176a3.762,3.762,0,0,1,.984.116.525.525,0,0,1,.366.261A1.035,1.035,0,0,1,36.4,27.333Z" transform="translate(-7.662 -22.204)" fill="#fff"/>
    <path id="Path_199" data-name="Path 199" d="M45.086,26.027l.087-.551q.1-.566-.551-.725A6.418,6.418,0,0,0,43.1,24.62h-.087a6.424,6.424,0,0,0-1.4.145,2.2,2.2,0,0,0-1.109.479,2.56,2.56,0,0,0-.465,1.248L39.1,31.786a.487.487,0,0,0,.093.413.47.47,0,0,0,.383.167H40.4a.691.691,0,0,0,.454-.161.669.669,0,0,0,.238-.423l.819-4.73a.892.892,0,0,1,.137-.4.577.577,0,0,1,.327-.181A3.32,3.32,0,0,1,43,26.4h.029a3.874,3.874,0,0,1,.835.094,3.42,3.42,0,0,0,.543.095A.622.622,0,0,0,45.086,26.027Z" transform="translate(-7.946 -22.204)" fill="#fff"/>
    <path id="Path_200" data-name="Path 200" d="M49.333,24.62a9.914,9.914,0,0,0-2.48.3.92.92,0,0,0-.74.754l-.087.406a.563.563,0,0,0,.094.493.539.539,0,0,0,.428.174,7.965,7.965,0,0,0,.972-.2,6.549,6.549,0,0,1,1.523-.2,1.539,1.539,0,0,1,1.067.261,1.11,1.11,0,0,1,.124.972.252.252,0,0,1-.32.247,8.906,8.906,0,0,0-1.465-.116H48.1a4.136,4.136,0,0,0-2.14.45A2.11,2.11,0,0,0,45.04,29.7l-.044.29a1.865,1.865,0,0,0,.479,1.864,3.637,3.637,0,0,0,2.335.588H48.2a4.88,4.88,0,0,0,2.583-.515,2.507,2.507,0,0,0,1-1.776l.348-1.916q.363-2.1-.254-2.857A3.239,3.239,0,0,0,49.333,24.62Zm.538,4.975-.088.566a.835.835,0,0,1-.189.45.9.9,0,0,1-.435.2,5.313,5.313,0,0,1-.972.073h-.131a1.456,1.456,0,0,1-.914-.2A.736.736,0,0,1,47,29.972l.015-.1a.9.9,0,0,1,.37-.667,1.941,1.941,0,0,1,.993-.189h.145a5.005,5.005,0,0,1,1.044.087.422.422,0,0,1,.3.153A.468.468,0,0,1,49.871,29.6Z" transform="translate(-8.139 -22.204)" fill="#fff"/>
    <path id="Path_201" data-name="Path 201" d="M64.627,26.306a1.6,1.6,0,0,0-.356-.7,2.3,2.3,0,0,0-.63-.484,3.328,3.328,0,0,0-.972-.311,12.011,12.011,0,0,0-1.312-.16q-.717-.051-1.7-.051a30.031,30.031,0,0,0-4.278.248,1.754,1.754,0,0,0-1.029.428,1.9,1.9,0,0,0-.435,1.038L52.963,31.7a.568.568,0,0,0,.087.479.515.515,0,0,0,.435.189h.783a.646.646,0,0,0,.7-.58l.806-4.571a.956.956,0,0,1,.19-.522.9.9,0,0,1,.481-.188,11.151,11.151,0,0,1,1.658-.116q.306,0,.262.276L57.474,31.7a.568.568,0,0,0,.087.479.517.517,0,0,0,.436.189h.769a.633.633,0,0,0,.712-.58l.9-5.12a.284.284,0,0,1,.3-.277,3.809,3.809,0,0,1,1.445.189.913.913,0,0,1,.492.754,4.6,4.6,0,0,1-.145,1.6L61.986,31.7a.571.571,0,0,0,.085.479.5.5,0,0,0,.426.189h.767a.67.67,0,0,0,.7-.588l.579-3.366a6.056,6.056,0,0,0,.174-1.186A3.514,3.514,0,0,0,64.627,26.306Z" transform="translate(-8.404 -22.204)" fill="#fff"/>
  </g>
</svg>
