<svg xmlns="http://www.w3.org/2000/svg" width="73.016" height="10.517" viewBox="0 0 73.016 10.517">
  <g id="Group_175" data-name="Group 175" transform="translate(0)">
    <g id="Group_173" data-name="Group 173">
      <path id="Path_158" data-name="Path 158" d="M216.106,270.638h7.5v10.5h-3.2c.02.021-.024-1.284-.024-2.1a2.259,2.259,0,0,0-1.5-2.131c.006-.842.006-1.669-.02-2.164-.041-1.122.568-1.3.986-1.3s1.008.112,1.056,1.073c.053,1.09-1.382,1.049-1.382,1.049v1.345s1.375-.35,1.41,1.318c.009.255,0,1.5,0,1.5h1.4v-2.049a1.6,1.6,0,0,0-.8-1.57s.78-.324.78-1.778a2.221,2.221,0,0,0-2.369-2.281,2.587,2.587,0,0,0-2.611,2.786v1.939h-1.231Z" transform="translate(-216.1 -270.638)" fill="#004c9b"/>
      <path id="Path_159" data-name="Path 159" d="M216.1,276.868a2.011,2.011,0,0,1,1.237-1.853v2.442h1.506s.023-1.187.035-2.445a2.011,2.011,0,1,1-2.778,1.856Z" transform="translate(-216.102 -268.364)" fill="#004c9b"/>
    </g>
    <g id="Group_174" data-name="Group 174" transform="translate(10.61 1.355)">
      <path id="Path_160" data-name="Path 160" d="M231.061,279.3v-7.714h1.567v3.157h1.681v-3.157H235.9V279.3h-1.588v-3.079h-1.681V279.3Z" transform="translate(-218.936 -271.499)" fill="#004c9b"/>
      <rect id="Rectangle_1473" data-name="Rectangle 1473" width="1.394" height="7.714" transform="translate(18.263 0.089)" fill="#004c9b"/>
      <path id="Path_161" data-name="Path 161" d="M236.885,279.333v-5.772a1.984,1.984,0,0,1,1.768-2,2.041,2.041,0,0,1,1.581.625,2.223,2.223,0,0,1,1.7-.658,2,2,0,0,1,1.711,1.66c.017.682,0,6.143,0,6.143h-1.571s.033-5.515,0-5.793a.491.491,0,0,0-.492-.5c-.274.015-.547.135-.555.5-.009.435,0,5.793,0,5.793h-1.564s0-5.436,0-5.793a.476.476,0,0,0-.52-.5.513.513,0,0,0-.567.5c0,.409,0,5.793,0,5.793Z" transform="translate(-215.909 -271.529)" fill="#004c9b"/>
      <path id="Path_162" data-name="Path 162" d="M227.183,279.285v-5.821a2.308,2.308,0,0,1,2.448-1.842,2.211,2.211,0,0,1,2.3,2v5.664h-1.491v-1.672h-1.806v1.672h-1.45m3.236-3.17v-2.345a.835.835,0,0,0-.9-.834.934.934,0,0,0-.874.834v2.345Z" transform="translate(-220.952 -271.481)" fill="#004c9b"/>
      <path id="Path_163" data-name="Path 163" d="M242.119,279.285v-5.821a2.313,2.313,0,0,1,2.453-1.842,2.218,2.218,0,0,1,2.306,2v5.664h-1.5v-1.672h-1.809v1.672h-1.454m3.243-3.17v-2.345a.837.837,0,0,0-.9-.834.939.939,0,0,0-.878.834v2.345Z" transform="translate(-213.188 -271.481)" fill="#004c9b"/>
      <path id="Path_164" data-name="Path 164" d="M249.36,279.289V274.4a2.583,2.583,0,0,1,2.6-2.787,2.222,2.222,0,0,1,2.374,2.28c0,1.456-.781,1.781-.781,1.781a1.592,1.592,0,0,1,.8,1.568c0,.354,0,2.046,0,2.046h-1.4v-1.5c-.038-1.661-1.415-1.316-1.415-1.316v-1.35s1.438.043,1.385-1.044c-.049-.962-.635-1.074-1.059-1.074s-1.032.181-.98,1.3c.053,1.324-.026,4.985-.026,4.985Z" transform="translate(-209.424 -271.485)" fill="#004c9b"/>
      <path id="Path_165" data-name="Path 165" d="M223.083,279.289V274.4a2.583,2.583,0,0,1,2.6-2.787,2.216,2.216,0,0,1,2.368,2.28c0,1.456-.774,1.781-.774,1.781a1.594,1.594,0,0,1,.8,1.568c0,.354,0,2.046,0,2.046h-1.4s.008-1.243,0-1.5c-.04-1.661-1.412-1.316-1.412-1.316v-1.35s1.436.043,1.381-1.044c-.049-.962-.637-1.074-1.056-1.074s-1.032.181-.985,1.3c.059,1.324-.023,4.985-.023,4.985Z" transform="translate(-223.083 -271.485)" fill="#004c9b"/>
      <path id="Path_166" data-name="Path 166" d="M246.045,279.283v-5.572a2.032,2.032,0,0,1,2.278-2.085,2.137,2.137,0,0,1,2.02,1.154,11.4,11.4,0,0,0-.851.9,1.093,1.093,0,0,0-1.079-.743c-.529.009-.892.272-.892.7v1.7h1.609v1.479h-1.609v2.468Z" transform="translate(-211.148 -271.479)" fill="#004c9b"/>
      <path id="Path_167" data-name="Path 167" d="M261,273.121v-1.533h4.818v1.251l-2.93,4.976,2.93,0V279.3h-4.881v-1.609l2.831-4.572Z" transform="translate(-203.409 -271.499)" fill="#004c9b"/>
      <path id="Path_168" data-name="Path 168" d="M253.341,273.979a2.2,2.2,0,0,1,2.4-2.339,2.344,2.344,0,0,1,2.363,2.473c0,.305-.043,2.144-.043,2.84s-.111,2.261-2.451,2.261a2.24,2.24,0,0,1-2.264-2.508c0-.486-.023-2.243,0-2.728m1.609,3.065c0,.313.2.871.763.848a.678.678,0,0,0,.711-.789c0-.289.02-2.673,0-3.078s-.1-1.008-.726-1.026-.748.717-.748,1.07Z" transform="translate(-207.36 -271.472)" fill="#004c9b"/>
      <path id="Path_169" data-name="Path 169" d="M257.188,273.979a2.2,2.2,0,0,1,2.392-2.339,2.343,2.343,0,0,1,2.363,2.473c0,.305-.036,2.144-.036,2.84s-.115,2.261-2.451,2.261a2.241,2.241,0,0,1-2.268-2.508c0-.486-.026-2.243,0-2.728m1.608,3.065c0,.313.2.871.764.848.66-.024.707-.5.707-.789s.02-2.673,0-3.078-.1-1.008-.723-1.026-.748.717-.748,1.07Z" transform="translate(-205.362 -271.472)" fill="#004c9b"/>
    </g>
  </g>
</svg>
