<svg xmlns="http://www.w3.org/2000/svg" width="30" height="30" viewBox="0 0 30 30">
  <g id="Group_207" data-name="Group 207" transform="translate(-515 -5987)">
    <g id="icon_instagram" transform="translate(515 5987)">
      <g id="Group_21" data-name="Group 21">
        <path id="Path_156" data-name="Path 156" d="M18.985,6.765c3.98,0,4.451.015,6.023.087a8.25,8.25,0,0,1,2.768.513A4.936,4.936,0,0,1,30.6,10.194a8.25,8.25,0,0,1,.513,2.768c.072,1.572.087,2.043.087,6.023s-.015,4.451-.087,6.023a8.25,8.25,0,0,1-.513,2.768A4.936,4.936,0,0,1,27.776,30.6a8.25,8.25,0,0,1-2.768.513c-1.572.072-2.043.087-6.023.087s-4.452-.015-6.023-.087a8.25,8.25,0,0,1-2.768-.513,4.936,4.936,0,0,1-2.829-2.829,8.25,8.25,0,0,1-.513-2.768c-.072-1.572-.087-2.043-.087-6.023s.015-4.451.087-6.023a8.25,8.25,0,0,1,.513-2.768,4.936,4.936,0,0,1,2.829-2.829,8.25,8.25,0,0,1,2.768-.513c1.572-.072,2.043-.087,6.023-.087m0-2.686c-4.048,0-4.556.017-6.146.09a10.941,10.941,0,0,0-3.618.693A7.622,7.622,0,0,0,4.862,9.221a10.941,10.941,0,0,0-.693,3.618c-.073,1.59-.09,2.1-.09,6.146s.017,4.556.09,6.146a10.941,10.941,0,0,0,.693,3.618,7.622,7.622,0,0,0,4.359,4.359,10.941,10.941,0,0,0,3.618.693c1.59.073,2.1.09,6.146.09s4.556-.017,6.146-.09a10.941,10.941,0,0,0,3.618-.693,7.622,7.622,0,0,0,4.359-4.359,10.941,10.941,0,0,0,.693-3.618c.073-1.59.09-2.1.09-6.146s-.017-4.556-.09-6.146a10.941,10.941,0,0,0-.693-3.618,7.622,7.622,0,0,0-4.359-4.359,10.941,10.941,0,0,0-3.618-.693c-1.59-.073-2.1-.09-6.146-.09Z" transform="translate(-4.079 -4.079)" fill="#bfbfbf"/>
        <path id="Path_157" data-name="Path 157" d="M134.289,126.635a7.654,7.654,0,1,0,7.654,7.654A7.654,7.654,0,0,0,134.289,126.635Zm0,12.623a4.969,4.969,0,1,1,4.969-4.969A4.969,4.969,0,0,1,134.289,139.258Z" transform="translate(-119.384 -119.384)" fill="#bfbfbf"/>
        <circle id="Ellipse_34" data-name="Ellipse 34" cx="1.789" cy="1.789" r="1.789" transform="translate(21.074 5.16)" fill="#bfbfbf"/>
      </g>
    </g>
  </g>
</svg>
