<svg id="icon_messenger" xmlns="http://www.w3.org/2000/svg" width="20" height="19.989" viewBox="0 0 20 19.989">
  <path id="Path_151" data-name="Path 151" d="M17,7A9.662,9.662,0,0,0,7,16.7a9.418,9.418,0,0,0,3.14,7.163.861.861,0,0,1,.279.558l.047,1.791a.818.818,0,0,0,1.116.721l1.977-.884A.837.837,0,0,1,14.093,26,10.705,10.705,0,0,0,17,26.4,9.7,9.7,0,1,0,17,7Zm6,7.465-2.93,4.651a1.483,1.483,0,0,1-2.163.4l-2.326-1.744a.593.593,0,0,0-.721,0l-3.186,2.4a.478.478,0,0,1-.7-.628l2.93-4.651a1.483,1.483,0,0,1,2.163-.4L18.4,16.233a.593.593,0,0,0,.721,0l3.163-2.4A.485.485,0,0,1,23,14.465Z" transform="translate(-7 -7)"/>
</svg>
