<svg id="icon_announcement" xmlns="http://www.w3.org/2000/svg" width="36.279" height="40" viewBox="0 0 36.279 40">
  <path id="ic_pan_tool_24px" d="M37.279,9.167V33.333A6.651,6.651,0,0,1,30.683,40H18.645a6.55,6.55,0,0,1-4.7-1.983L1,24.717s2.078-2.05,2.144-2.083a1.942,1.942,0,0,1,1.3-.483,2,2,0,0,1,.989.267c.066.017,7.107,4.1,7.107,4.1V6.667a2.474,2.474,0,1,1,4.947,0V18.333H19.14V2.5a2.474,2.474,0,1,1,4.947,0V18.333h1.649V4.167a2.474,2.474,0,1,1,4.947,0V18.333h1.649V9.167a2.474,2.474,0,1,1,4.947,0Z" transform="translate(-1)" fill="#707070"/>
</svg>
