<svg id="icon_design" xmlns="http://www.w3.org/2000/svg" width="40" height="40" viewBox="0 0 40 40">
  <path id="ic_color_lens_24px" d="M23,3a20,20,0,1,0,0,40,3.335,3.335,0,0,0,2.467-5.578,3.321,3.321,0,0,1,2.489-5.533h3.933A11.115,11.115,0,0,0,43,20.778C43,10.956,34.044,3,23,3ZM10.778,23a3.333,3.333,0,1,1,3.333-3.333A3.329,3.329,0,0,1,10.778,23Zm6.667-8.889a3.333,3.333,0,1,1,3.333-3.333A3.329,3.329,0,0,1,17.444,14.111Zm11.111,0a3.333,3.333,0,1,1,3.333-3.333A3.329,3.329,0,0,1,28.556,14.111ZM35.222,23a3.333,3.333,0,1,1,3.333-3.333A3.329,3.329,0,0,1,35.222,23Z" transform="translate(-3 -3)" fill="#707070"/>
</svg>
