<svg id="icon_process" xmlns="http://www.w3.org/2000/svg" width="40" height="40" viewBox="0 0 40 40">
  <path id="ic_extension_24px" d="M37.238,20.048H34.381V12.429a3.821,3.821,0,0,0-3.81-3.81H22.952V5.762a4.762,4.762,0,1,0-9.524,0V8.619H5.81a3.8,3.8,0,0,0-3.79,3.81v7.238H4.857a5.143,5.143,0,0,1,0,10.286H2V37.19A3.821,3.821,0,0,0,5.81,41h7.238V38.143a5.143,5.143,0,1,1,10.286,0V41h7.238a3.821,3.821,0,0,0,3.81-3.81V29.571h2.857a4.762,4.762,0,1,0,0-9.524Z" transform="translate(-2 -1)" fill="#707070"/>
</svg>
