<svg id="icon_dribbble" xmlns="http://www.w3.org/2000/svg" width="20" height="20" viewBox="0 0 20 20">
  <path id="Path_161" data-name="Path 161" d="M10,0A10,10,0,1,0,20,10,10,10,0,0,0,10,0Zm6.605,4.61a8.5,8.5,0,0,1,1.931,5.314,20.169,20.169,0,0,0-5.944-.271c-.065-.141-.119-.293-.184-.445-.174-.412-.369-.835-.564-1.236A11.431,11.431,0,0,0,16.605,4.61ZM10,1.475a8.523,8.523,0,0,1,5.662,2.148A9.682,9.682,0,0,1,11.182,6.7a46.131,46.131,0,0,0-3.189-5A8.69,8.69,0,0,1,10,1.475Zm-3.633.8A53.922,53.922,0,0,1,9.534,7.213a32.036,32.036,0,0,1-7.9,1.041A8.581,8.581,0,0,1,6.367,2.278ZM1.453,10.011v-.26a31.213,31.213,0,0,0,8.774-1.215c.249.477.477.965.694,1.453-.109.033-.228.065-.336.1a13.579,13.579,0,0,0-6.941,5.629A8.522,8.522,0,0,1,1.453,10.011ZM10,18.547a8.482,8.482,0,0,1-5.239-1.8,11.726,11.726,0,0,1,6.7-5.336c.022-.011.033-.011.054-.022a35.308,35.308,0,0,1,1.822,6.475A8.4,8.4,0,0,1,10,18.547Zm4.761-1.464A36.765,36.765,0,0,0,13.1,11a12.473,12.473,0,0,1,5.314.369A8.467,8.467,0,0,1,14.761,17.082Z" fill="#231f20" fill-rule="evenodd"/>
</svg>
