<svg xmlns="http://www.w3.org/2000/svg" width="31" height="21.909" viewBox="0 0 31 21.909">
  <g id="icon_youtube" transform="translate(0.5 0.5)">
    <path id="Exclusion_1" data-name="Exclusion 1" d="M15,20.909c-.094,0-9.408-.007-11.721-.624A3.745,3.745,0,0,1,.628,17.644,38.891,38.891,0,0,1,0,10.455,38.875,38.875,0,0,1,.628,3.266,3.745,3.745,0,0,1,3.279.624C5.592.007,14.906,0,15,0s9.407.007,11.72.624a3.749,3.749,0,0,1,2.652,2.642A38.875,38.875,0,0,1,30,10.455a38.891,38.891,0,0,1-.628,7.19,3.749,3.749,0,0,1-2.652,2.641C24.407,20.9,15.094,20.909,15,20.909ZM11.932,6.042v8.826l7.841-4.413L11.932,6.042Z" transform="translate(0 0)" fill="#bfbfbf" stroke="rgba(0,0,0,0)" stroke-width="1"/>
  </g>
</svg>
