<svg id="icon_twitter" xmlns="http://www.w3.org/2000/svg" width="20" height="16.262" viewBox="0 0 20 16.262">
  <path id="Path_158" data-name="Path 158" d="M95.975,130.762a11.6,11.6,0,0,0,11.682-11.682c0-.179,0-.358-.009-.528a8.411,8.411,0,0,0,2.052-2.129,8.333,8.333,0,0,1-2.358.647,4.1,4.1,0,0,0,1.805-2.273,8.314,8.314,0,0,1-2.605,1,4.108,4.108,0,0,0-7.1,2.81,3.763,3.763,0,0,0,.111.937,11.647,11.647,0,0,1-8.463-4.291,4.1,4.1,0,0,0,1.277,5.475,4.033,4.033,0,0,1-1.856-.511v.051a4.11,4.11,0,0,0,3.3,4.027,4.093,4.093,0,0,1-1.081.145,3.92,3.92,0,0,1-.775-.077,4.1,4.1,0,0,0,3.831,2.852,8.253,8.253,0,0,1-5.1,1.754,7.466,7.466,0,0,1-.979-.06,11.439,11.439,0,0,0,6.275,1.856" transform="translate(-89.7 -114.5)" fill="#231f20"/>
</svg>
