<svg xmlns="http://www.w3.org/2000/svg" width="19.392" height="20" viewBox="0 0 19.392 20">
  <g id="icon_google" transform="translate(0 0)">
    <path id="Path_150" data-name="Path 150" d="M24.851,13.65h-9.2v2.717h6.574c-.329,3.769-3.44,5.412-6.4,5.412A7.108,7.108,0,0,1,8.68,14.548a7.109,7.109,0,0,1,7.143-7.231,6.931,6.931,0,0,1,4.843,1.972L22.55,7.317A9.69,9.69,0,0,0,15.736,4.6,10.115,10.115,0,0,0,5.7,14.548,10.088,10.088,0,0,0,15.889,24.5c5.347,0,9.2-3.615,9.2-9.05a9.9,9.9,0,0,0-.241-1.8Z" transform="translate(-5.7 -4.6)"/>
  </g>
</svg>
