<svg id="icon_facebook_b" xmlns="http://www.w3.org/2000/svg" width="30" height="30.002" viewBox="0 0 30 30.002">
  <path id="Path_149" data-name="Path 149" d="M38.339,10H11.665A1.666,1.666,0,0,0,10,11.665V38.333A1.666,1.666,0,0,0,11.665,40H26.026V28.4h-3.9V23.861h3.9V20.527c0-3.874,2.367-5.989,5.836-5.989a31.926,31.926,0,0,1,3.492.18v4.035H32.96c-1.879,0-2.247.9-2.247,2.209v2.891h4.5L34.626,28.4H30.714V40h7.621A1.666,1.666,0,0,0,40,38.337V11.665A1.661,1.661,0,0,0,38.339,10Z" transform="translate(-10 -10)" fill="#363636"/>
</svg>
