<svg xmlns="http://www.w3.org/2000/svg" width="40" height="40" viewBox="0 0 40 40">
  <path id="ic_tonality_24px" d="M22,2A20,20,0,1,0,42,22,20.007,20.007,0,0,0,22,2ZM20,37.86A15.984,15.984,0,0,1,20,6.14ZM24,6.14A16.014,16.014,0,0,1,29.74,8H24ZM24,12H34.48a15.3,15.3,0,0,1,1.36,2H24Zm0,6H37.48a16.8,16.8,0,0,1,.38,2H24Zm0,19.86V36h5.74A16.015,16.015,0,0,1,24,37.86ZM34.48,32H24V30H35.84A15.3,15.3,0,0,1,34.48,32Zm3-6H24V24H37.86A16.8,16.8,0,0,1,37.48,26Z" transform="translate(-2 -2)" fill="#7a3390"/>
</svg>
