<svg id="icon_instagram" xmlns="http://www.w3.org/2000/svg" width="19.993" height="19.993" viewBox="0 0 19.993 19.993">
  <g id="Group_21" data-name="Group 21">
    <path id="Path_156" data-name="Path 156" d="M14.076,5.88c2.669,0,2.985.01,4.039.058a5.533,5.533,0,0,1,1.856.344,3.311,3.311,0,0,1,1.9,1.9,5.533,5.533,0,0,1,.344,1.856c.048,1.054.058,1.37.058,4.04s-.01,2.985-.058,4.039a5.533,5.533,0,0,1-.344,1.856,3.311,3.311,0,0,1-1.9,1.9,5.533,5.533,0,0,1-1.856.344c-1.054.048-1.37.058-4.039.058s-2.986-.01-4.039-.058a5.533,5.533,0,0,1-1.856-.344,3.311,3.311,0,0,1-1.9-1.9,5.533,5.533,0,0,1-.344-1.856c-.048-1.054-.058-1.37-.058-4.04s.01-2.985.058-4.039A5.533,5.533,0,0,1,6.283,8.18a3.311,3.311,0,0,1,1.9-1.9,5.533,5.533,0,0,1,1.856-.344c1.054-.048,1.37-.058,4.04-.058m0-1.8c-2.715,0-3.055.012-4.122.06A7.338,7.338,0,0,0,7.527,4.6,5.112,5.112,0,0,0,4.6,7.527a7.338,7.338,0,0,0-.465,2.427c-.049,1.066-.06,1.407-.06,4.122s.012,3.055.06,4.122A7.338,7.338,0,0,0,4.6,20.624a5.112,5.112,0,0,0,2.924,2.924,7.338,7.338,0,0,0,2.427.465c1.066.049,1.407.06,4.122.06s3.055-.012,4.122-.06a7.338,7.338,0,0,0,2.427-.465,5.112,5.112,0,0,0,2.924-2.924,7.338,7.338,0,0,0,.465-2.427c.049-1.066.06-1.407.06-4.122s-.012-3.055-.06-4.122a7.338,7.338,0,0,0-.465-2.427A5.112,5.112,0,0,0,20.624,4.6,7.338,7.338,0,0,0,18.2,4.139c-1.066-.049-1.407-.06-4.122-.06Z" transform="translate(-4.079 -4.079)"/>
    <path id="Path_157" data-name="Path 157" d="M130.8,126.635a4.16,4.16,0,1,0,4.16,4.16A4.16,4.16,0,0,0,130.8,126.635Zm0,6.861a2.7,2.7,0,1,1,2.7-2.7A2.7,2.7,0,0,1,130.8,133.5Z" transform="translate(-120.799 -120.799)"/>
    <circle id="Ellipse_34" data-name="Ellipse 34" cx="1.44" cy="1.44" r="1.44" transform="translate(13.748 3.366)"/>
  </g>
</svg>
