<svg id="Component" xmlns="http://www.w3.org/2000/svg" width="49.943" height="40.433" viewBox="0 0 49.943 40.433">
  <path id="Path_24" data-name="Path 24" d="M80.334,144.736c.035-.331.077-.668.14-1.018l.083-.342.055-.23a19.072,19.072,0,0,0-2.6-2.726,18.472,18.472,0,0,0-2.334-1.709,5.036,5.036,0,0,1,.476,2.453v.087a5.733,5.733,0,0,0-2.585-2.215,11.944,11.944,0,0,0-3.243-1.071,16.8,16.8,0,0,1,3.459,3.868c-.561-.428-2.238-1.249-7.184-2.592-.126-.034-.244-.063-.366-.094q-.749-.2-1.41-.331a16.7,16.7,0,0,0-3.079-.38c.083.4.209.961.378,1.564l-3.319-.6-1.84,1.343a8.742,8.742,0,0,1-1.309-1.582,5.744,5.744,0,0,0-2.237.939c-.086.07-.171.146-.257.219l-.115.1a19,19,0,0,0-2.6,2.726l.056.23.081.342c.063.349.107.686.14,1.018.411,3.949-1.067,6.613-1.3,10.342-.254,4.042,1.84,4.925,5.667,7.381a8.948,8.948,0,0,1,2.989,2.866,59.905,59.905,0,0,0,6.148.386,16.284,16.284,0,0,1-4.015-1.6c-3.144-1.732-2.805-6.284-2.354-8.751a4.6,4.6,0,0,1-.3-2.2,4.712,4.712,0,0,1,1.38-3.029,6.7,6.7,0,0,1-2.759-.653,2.721,2.721,0,0,1-1.641-2.23,4.428,4.428,0,0,1,1.276-2.146l7.694-.272a7.409,7.409,0,0,1,.908,1.665c.112-.1.243-.2.348-.279.291-.219.554-.119.768-.212l-.007-.048a2.361,2.361,0,0,1,.773.26c.107.08.215.166.327.261.473-1.148,1.375-3.6,3.385-3.892a6.647,6.647,0,0,1,4.283.946c1.009.757,2.637,2.215,2.766,3.822a3.087,3.087,0,0,1-1.918,2.153,7.953,7.953,0,0,1-3.016.626,4.712,4.712,0,0,1,1.378,3.029,4.62,4.62,0,0,1-.295,2.2c.451,2.467.789,7.019-2.354,8.751a16.326,16.326,0,0,1-4.015,1.6,59.9,59.9,0,0,0,6.147-.386,8.949,8.949,0,0,1,2.989-2.866c3.827-2.456,5.922-3.339,5.667-7.381C81.4,151.349,79.923,148.685,80.334,144.736Z" transform="translate(-40.553 -126.107)" fill="#f27321"/>
  <path id="Path_25" data-name="Path 25" d="M57.621,160.97c-3.827-2.456-5.921-3.339-5.667-7.381.236-3.729,1.714-6.393,1.3-10.342-.034-.331-.077-.668-.14-1.018l-.081-.342-.056-.23a20.891,20.891,0,0,0-1.408,2.045,23.148,23.148,0,0,0-1.1,2.065c-.066-.16-.139-.335-.215-.525-1.864,2.112-4.247,4.535-6.115,5.507a19.377,19.377,0,0,0,3.461.034,18.365,18.365,0,0,1-4.5,3.69,5.259,5.259,0,0,0,3.208.34,4.564,4.564,0,0,0-2.2,4.271c.006.058.011.1.017.159a8.842,8.842,0,0,1,3.242-2.33,8.264,8.264,0,0,0-.342,5.62l.1.425a5.37,5.37,0,0,1,3.18-2.6,19.886,19.886,0,0,0,2.389,1.238,22.829,22.829,0,0,0,7.919,2.247A8.949,8.949,0,0,0,57.621,160.97Z" transform="translate(-43.094 -124.617)" fill="#fcd1b7"/>
  <path id="Path_26" data-name="Path 26" d="M80.509,154.811a5.256,5.256,0,0,0,3.207-.34,18.392,18.392,0,0,1-4.5-3.69,19.375,19.375,0,0,0,3.461-.034c-1.868-.973-4.25-3.4-6.113-5.507-.077.19-.149.365-.216.525a22.793,22.793,0,0,0-1.1-2.065,20.654,20.654,0,0,0-1.408-2.045l-.055.23-.083.342c-.063.349-.105.686-.14,1.018-.411,3.949,1.067,6.613,1.3,10.342.255,4.042-1.84,4.925-5.667,7.381a8.949,8.949,0,0,0-2.989,2.866,22.828,22.828,0,0,0,7.921-2.247,20.105,20.105,0,0,0,2.389-1.238,5.379,5.379,0,0,1,3.18,2.6l.1-.425a8.252,8.252,0,0,0-.344-5.62,8.828,8.828,0,0,1,3.242,2.33c.006-.055.013-.1.017-.159A4.565,4.565,0,0,0,80.509,154.811Z" transform="translate(-33.773 -124.617)" fill="#fcd1b7"/>
  <path id="Path_27" data-name="Path 27" d="M56.464,147.715s-3.848-.794-4-2.905c0,0-1.253,1.541.119,2.407S56.464,147.715,56.464,147.715Z" transform="translate(-39.523 -123.345)" fill="#5f3c1a"/>
  <path id="Path_28" data-name="Path 28" d="M56.272,149.209s-4.728-.5-5.114-2.778c0,0-1.375,1.756.247,2.528S56.272,149.209,56.272,149.209Z" transform="translate(-40.06 -122.691)" fill="#5f3c1a"/>
  <path id="Path_29" data-name="Path 29" d="M56.061,155.251a6.95,6.95,0,0,0-2.478-2.82A4.637,4.637,0,0,0,52,151.743a2.666,2.666,0,0,1-2.216-1.9,9.621,9.621,0,0,1,.408-3.391s-.536,2.563,1.156,3.519c1.871,1.055,2.793,1,3.916,2.831A5.849,5.849,0,0,1,56.061,155.251Z" transform="translate(-40.417 -122.684)" fill="#5f3c1a"/>
  <path id="Path_30" data-name="Path 30" d="M50.15,149.452a8.313,8.313,0,0,0,2.671,6.386l3.945,3.391a11.225,11.225,0,0,1-3.027-1.293c-1.38-.893-4.279-2.135-4.342-5.648a18.668,18.668,0,0,1,.721-5.221A8.654,8.654,0,0,0,50.15,149.452Z" transform="translate(-40.553 -122.434)" fill="#5f3c1a"/>
  <path id="Path_31" data-name="Path 31" d="M66.61,147.715s3.848-.794,4-2.905c0,0,1.252,1.541-.119,2.407S66.61,147.715,66.61,147.715Z" transform="translate(-33.607 -123.345)" fill="#5f3c1a"/>
  <path id="Path_32" data-name="Path 32" d="M67.128,149.209s4.73-.5,5.115-2.778c0,0,1.375,1.756-.247,2.528S67.128,149.209,67.128,149.209Z" transform="translate(-33.398 -122.691)" fill="#5f3c1a"/>
  <path id="Path_33" data-name="Path 33" d="M67.534,155.251a6.95,6.95,0,0,1,2.478-2.82,4.637,4.637,0,0,1,1.579-.688,2.664,2.664,0,0,0,2.215-1.9,9.63,9.63,0,0,0-.407-3.391s.536,2.563-1.156,3.519c-1.872,1.055-2.794,1-3.916,2.831A5.825,5.825,0,0,0,67.534,155.251Z" transform="translate(-33.234 -122.684)" fill="#5f3c1a"/>
  <path id="Path_34" data-name="Path 34" d="M73.745,149.452a8.319,8.319,0,0,1-2.671,6.386l-3.945,3.391a11.244,11.244,0,0,0,3.027-1.293c1.38-.893,4.279-2.135,4.341-5.648a18.7,18.7,0,0,0-.72-5.221A8.654,8.654,0,0,1,73.745,149.452Z" transform="translate(-33.398 -122.434)" fill="#5f3c1a"/>
  <path id="Path_35" data-name="Path 35" d="M72.972,142.239a6.21,6.21,0,0,0-4.22-1.013c-2.01.288-2.975,2.811-3.448,3.959a8.65,8.65,0,0,1,2.49,3.5,4.931,4.931,0,0,1,.239,2.594,4.4,4.4,0,0,1-.26.869,2.566,2.566,0,0,1-1.3,1.367c-.02.008-.035.021-.055.029l-.048.017a4.149,4.149,0,0,1-.436.153l-.042.011-1.68.209-1.723-.22s-.289-.1-.435-.153c-.015-.006-.048-.021-.062-.028l-.062-.028a2.513,2.513,0,0,1-1.281-1.357,4.53,4.53,0,0,1-.267-.869,4.961,4.961,0,0,1,.246-2.594,8.539,8.539,0,0,1,2.469-3.478c-.473-1.148-1.447-3.69-3.457-3.978a6.212,6.212,0,0,0-4.22,1.013c-1.008.756-2.637,2.215-2.765,3.822a3.087,3.087,0,0,0,1.918,2.153,7.954,7.954,0,0,0,3.016.626,4.718,4.718,0,0,0-1.38,3.029,4.6,4.6,0,0,0,.3,2.2,14.841,14.841,0,0,0-.184,4.54h-.014c-.108,5.237,4.687,6.376,6.839,6.578h0a10.321,10.321,0,0,0,2.257-.017h0c2.217-.241,6.788-1.447,6.683-6.561h-.014a14.793,14.793,0,0,0-.185-4.54,4.6,4.6,0,0,0,.3-2.2A4.712,4.712,0,0,0,70.8,148.84a7.954,7.954,0,0,0,3.016-.626,3.087,3.087,0,0,0,1.918-2.153C75.609,144.454,73.981,143,72.972,142.239Z" transform="translate(-39.238 -124.809)" fill="#fcd1b7"/>
  <path id="Path_36" data-name="Path 36" d="M47.5,138.678c-1.34,1.06.237,5.558,1.187,7.912.076.189.149.365.215.525A23.166,23.166,0,0,1,50,145.05a20.9,20.9,0,0,1,1.408-2.045,19,19,0,0,1,2.6-2.726C52.706,139.5,49,137.493,47.5,138.678Z" transform="translate(-41.526 -125.966)" fill="#f27321"/>
  <path id="Path_37" data-name="Path 37" d="M59.33,150l.049.017c-.036-.014-.067-.032-.1-.046C59.3,149.974,59.311,149.987,59.33,150Z" transform="translate(-36.566 -121.264)" fill="#a15a28"/>
  <path id="Path_38" data-name="Path 38" d="M60.211,150.221l.107.014v-.006C60.284,150.225,60.245,150.225,60.211,150.221Z" transform="translate(-36.189 -121.161)" fill="#f27321"/>
  <path id="Path_39" data-name="Path 39" d="M76.3,138.678c-1.5-1.185-5.208.825-6.516,1.6a19.069,19.069,0,0,1,2.6,2.726,20.664,20.664,0,0,1,1.408,2.045,22.813,22.813,0,0,1,1.1,2.065c.067-.16.139-.335.216-.525C76.062,144.236,77.639,139.738,76.3,138.678Z" transform="translate(-32.327 -125.966)" fill="#f27321"/>
  <path id="Path_40" data-name="Path 40" d="M61.488,150.235l.108-.014c-.034,0-.073,0-.108.008Z" transform="translate(-35.674 -121.161)" fill="#f27321"/>
  <path id="Path_41" data-name="Path 41" d="M62.474,150c.02-.008.035-.021.055-.029-.035.015-.066.032-.1.046Z" transform="translate(-35.295 -121.264)" fill="#a15a28"/>
  <path id="Path_42" data-name="Path 42" d="M60.287,150.233c.177.022.366.035.567.041-.2-.008-.386-.024-.567-.046Z" transform="translate(-36.158 -121.159)" fill="#f27321"/>
  <path id="Path_43" data-name="Path 43" d="M60.807,150.27c.058,0,.1,0,.16,0-.1,0-.185,0-.276-.007C60.732,150.263,60.767,150.268,60.807,150.27Z" transform="translate(-35.995 -121.146)" fill="#f27321"/>
  <path id="Path_44" data-name="Path 44" d="M61.084,150.273c.2-.006.39-.018.567-.041v-.006C61.471,150.249,61.282,150.265,61.084,150.273Z" transform="translate(-35.837 -121.159)" fill="#f27321"/>
  <path id="Path_45" data-name="Path 45" d="M61.047,150.27c.042,0,.076-.007.116-.01-.09,0-.18.007-.275.007C60.943,150.266,60.99,150.271,61.047,150.27Z" transform="translate(-35.916 -121.146)" fill="#f27321"/>
  <path id="Path_46" data-name="Path 46" d="M52.321,140.99s-2.412-1.884-3.69-1.648.835,5.361.835,5.361A22.148,22.148,0,0,1,52.321,140.99Z" transform="translate(-41.026 -125.559)" fill="#603813"/>
  <path id="Path_47" data-name="Path 47" d="M73.654,144.971a31.2,31.2,0,0,0-3.033-4s2.672-1.889,3.495-1.6S75.339,140.617,73.654,144.971Z" transform="translate(-31.989 -125.554)" fill="#603813"/>
  <path id="Path_48" data-name="Path 48" d="M62.808,149.388a7.324,7.324,0,0,1-1.66.015,8.238,8.238,0,0,1-2.963-.908,4.511,4.511,0,0,0,.23.747,2.568,2.568,0,0,0,1.3,1.367c.035.014.066.032.1.046a3.957,3.957,0,0,0,.435.153c.039.013.087.021.129.032a5.491,5.491,0,0,0,.6.121l.042.006c.034,0,.073,0,.107.008.181.022.369.038.567.046.091,0,.18.007.276.007s.185,0,.275-.007c.2-.008.387-.024.567-.046.035,0,.074,0,.108-.008l.041-.006a5.328,5.328,0,0,0,.6-.121c.042-.011.087-.02.128-.032a4.154,4.154,0,0,0,.436-.153c.035-.014.067-.031.1-.046a2.566,2.566,0,0,0,1.3-1.367,4.4,4.4,0,0,0,.26-.869A8,8,0,0,1,62.808,149.388Z" transform="translate(-37.006 -121.907)" fill="#603813"/>
  <path id="Path_49" data-name="Path 49" d="M65.592,147.69a8.65,8.65,0,0,0-2.49-3.5c-.112-.1-.22-.181-.327-.261-.039-.031-.079-.059-.118-.087a1.11,1.11,0,0,0-1.3,0l-.118.087c-.105.08-.215.166-.326.261a8.639,8.639,0,0,0-2.491,3.5,4.906,4.906,0,0,0-.209,2.716,8.237,8.237,0,0,0,2.963.908,7.325,7.325,0,0,0,1.66-.015,8,8,0,0,0,2.992-1.015A4.931,4.931,0,0,0,65.592,147.69Z" transform="translate(-37.036 -123.818)" fill="#a15a28"/>
  <path id="Path_50" data-name="Path 50" d="M59.827,145.817a3.775,3.775,0,0,0-1.865-2.811,2.351,2.351,0,0,0-1.678-.027,3.143,3.143,0,0,0-1.862,1.4c-.581,1.228,1.709,2.661,3.189,2.431C60.071,146.423,59.827,145.817,59.827,145.817Z" transform="translate(-38.562 -124.141)" fill="#fff"/>
  <ellipse id="Ellipse_1" data-name="Ellipse 1" cx="1.038" cy="1.038" rx="1.038" ry="1.038" transform="translate(17.656 19.646)" fill="#5f3c1a"/>
  <ellipse id="Ellipse_2" data-name="Ellipse 2" cx="0.373" cy="0.373" rx="0.373" ry="0.373" transform="translate(17.969 19.832)" fill="#fff"/>
  <path id="Path_51" data-name="Path 51" d="M63.547,145.817a3.775,3.775,0,0,1,1.865-2.811,2.351,2.351,0,0,1,1.678-.027,3.142,3.142,0,0,1,1.862,1.4c.581,1.228-1.709,2.661-3.187,2.431C63.3,146.423,63.547,145.817,63.547,145.817Z" transform="translate(-34.846 -124.141)" fill="#fff"/>
  <ellipse id="Ellipse_3" data-name="Ellipse 3" cx="1.038" cy="1.038" rx="1.038" ry="1.038" transform="translate(30.235 19.646)" fill="#5f3c1a"/>
  <ellipse id="Ellipse_4" data-name="Ellipse 4" cx="0.373" cy="0.373" rx="0.373" ry="0.373" transform="translate(30.527 19.832)" fill="#fff"/>
  <path id="Path_52" data-name="Path 52" d="M63.252,142.06s4.541-1.228,7.052,1.983C70.3,144.044,66.711,137.288,63.252,142.06Z" transform="translate(-34.962 -125.142)" fill="#5f3c1a"/>
  <path id="Path_53" data-name="Path 53" d="M60.4,142.309s-4.555-1.326-7.066,1.884C53.333,144.193,56.94,137.537,60.4,142.309Z" transform="translate(-38.963 -125.049)" fill="#5f3c1a"/>
  <path id="Path_54" data-name="Path 54" d="M77.236,137.378a5,5,0,0,1-3.558-.261,11.124,11.124,0,0,0,2.754-6.42c-1.467,1.809-5.214,3.133-7.072,3.7a10.6,10.6,0,0,0,.87-4.883A6.3,6.3,0,0,1,67.1,132.23c-2.864,1.439-6.786,3.624-7.818,4.2a2.723,2.723,0,0,1-.345-1.158,2.852,2.852,0,0,1,.987-2.771,4.593,4.593,0,0,0-3.792,3.872,4.735,4.735,0,0,0-4.975-.326,4.515,4.515,0,0,1,2.53.574,1.793,1.793,0,0,1,1.026,1.571,8.234,8.234,0,0,0-1.716,2.869,5.275,5.275,0,0,0-.556,2.619c0,.018.007.032.011.049.086-.073.171-.149.257-.219a5.745,5.745,0,0,1,2.237-.939,9.906,9.906,0,0,0,4.655,3.745c.272.109.526.2.772.279a3.408,3.408,0,0,1,.585.174,5.8,5.8,0,0,0,2.476.2c-1.309-.466-2.111-3.73-2.4-5.126a16.58,16.58,0,0,1,3.079.38q.661.137,1.41.331c.122.031.24.06.366.094,4.946,1.343,6.623,2.164,7.184,2.592a16.8,16.8,0,0,0-3.459-3.868,11.948,11.948,0,0,1,3.243,1.071,5.734,5.734,0,0,1,2.585,2.215v-.087a5.036,5.036,0,0,0-.476-2.453,7.181,7.181,0,0,0-1.555-2.135C75.049,139.9,76.485,138.36,77.236,137.378Z" transform="translate(-39.843 -129.516)" fill="#3b2f2c"/>
  <path id="Path_55" data-name="Path 55" d="M57.76,149.063s-1.5-2.14-4.992-1.6c0,0,3.239-.167,4.676,1.781C57.444,149.241,57.742,149.444,57.76,149.063Z" transform="translate(-39.191 -122.31)" fill="#5f3c1a"/>
  <path id="Path_56" data-name="Path 56" d="M57.578,149.735s-2.195-1.413-5.226.406c0,0,2.936-1.381,5-.121C57.354,150.02,57.707,150.1,57.578,149.735Z" transform="translate(-39.359 -121.568)" fill="#5f3c1a"/>
  <path id="Path_57" data-name="Path 57" d="M57.66,150.678a3.513,3.513,0,0,0-3.938,1.307,4.038,4.038,0,0,1,3.872-1.013S57.9,150.974,57.66,150.678Z" transform="translate(-38.806 -121.045)" fill="#5f3c1a"/>
  <path id="Path_58" data-name="Path 58" d="M65.426,149.063s1.5-2.14,4.993-1.6c0,0-3.24-.167-4.678,1.781C65.742,149.241,65.444,149.444,65.426,149.063Z" transform="translate(-34.085 -122.31)" fill="#5f3c1a"/>
  <path id="Path_59" data-name="Path 59" d="M65.683,149.735s2.195-1.413,5.228.406c0,0-2.936-1.381-5-.121C65.908,150.02,65.555,150.1,65.683,149.735Z" transform="translate(-33.992 -121.568)" fill="#5f3c1a"/>
  <path id="Path_60" data-name="Path 60" d="M65.251,150.678a3.51,3.51,0,0,1,3.937,1.307,4.036,4.036,0,0,0-3.872-1.013S65.009,150.974,65.251,150.678Z" transform="translate(-34.193 -121.045)" fill="#5f3c1a"/>
  <g id="Group_5" data-name="Group 5" transform="translate(16.831 23.928)">
    <path id="Path_61" data-name="Path 61" d="M60.66,155.087a6.28,6.28,0,0,1-4.29-1.58,4.217,4.217,0,0,1-1.259-3.559c.251-2.6,1.41-3.353,1.46-3.382l.129.2c-.011.007-1.109.734-1.349,3.2a3.982,3.982,0,0,0,1.187,3.361,6.214,6.214,0,0,0,4.967,1.458,16.967,16.967,0,0,0,2.15-.623l.036-.013.036.011c.291.084.545.171.783.253a5.414,5.414,0,0,0,1.819.385,4.992,4.992,0,0,0,3.513-1.552,4.194,4.194,0,0,0,1.3-3.074,5.2,5.2,0,0,0-1.4-3.422l.164-.178a5.365,5.365,0,0,1,1.476,3.59,4.429,4.429,0,0,1-1.364,3.252,5.209,5.209,0,0,1-3.621,1.625h-.069a5.587,5.587,0,0,1-1.893-.4c-.225-.077-.465-.16-.735-.239a16.706,16.706,0,0,1-2.161.622A6.772,6.772,0,0,1,60.66,155.087Z" transform="translate(-55.087 -146.565)" fill="#5f3c1a"/>
  </g>
  <g id="Group_6" data-name="Group 6" transform="translate(24.352 33.401)">
    <path id="Path_62" data-name="Path 62" d="M61.42,154.1a3.511,3.511,0,0,1-.974-.128l.072-.23a3.524,3.524,0,0,0,2.752-.428l.133.2A3.553,3.553,0,0,1,61.42,154.1Z" transform="translate(-60.446 -153.314)" fill="#5f3c1a"/>
  </g>
  <g id="Group_7" data-name="Group 7" transform="translate(19.519 31.691)">
    <path id="Path_63" data-name="Path 63" d="M57,152.1" transform="translate(-57.002 -152.096)" fill="none" stroke="#5f3c1a" stroke-miterlimit="10" stroke-width="0.172"/>
  </g>
  <g id="Group_8" data-name="Group 8" transform="translate(25.318 29.069)">
    <rect id="Rectangle_6" data-name="Rectangle 6" width="0.241" height="2.577" fill="#5f3c1a"/>
  </g>
</svg>
